<?xml version="1.0" encoding="utf-8"?>
<!-- Generator: Adobe Illustrator 20.1.0, SVG Export Plug-In . SVG Version: 6.00 Build 0)  -->
<svg version="1.1" id="Capa_1" xmlns="http://www.w3.org/2000/svg" xmlns:xlink="http://www.w3.org/1999/xlink" x="0px" y="0px"
	 width="1551.8608398px" height="248.228363px" viewBox="0 0 1551.8608398 248.228363"
	 style="enable-background:new 0 0 1551.8608398 248.228363;" xml:space="preserve">
<style type="text/css">
	.st0{fill:#6CB69F;}
	.st1{fill:url(#SVGID_1_);}
	.st2{opacity:0.1;fill:#EBE441;enable-background:new    ;}
	.st3{fill:#EBE441;}
	.st4{fill:#D8CB30;}
	.st5{fill:#5B8E80;}
	.st6{fill:#4E8072;}
	.st7{fill:#263649;}
	.st8{fill:#E0D2C1;}
	.st9{fill:#B7A99A;}
	.st10{fill:#E2A58A;}
	.st11{fill:#1A2530;}
	.st12{fill:#BC8169;}
	.st13{fill:#5B554F;}
	.st14{fill:#8BCBF2;}
	.st15{fill:#6FA6C1;}
	.st16{fill:#BAE3F7;}
	.st17{fill:#E7E5E1;}
	.st18{fill:#CAC8C6;}
	.st19{fill:#41301F;}
	.st20{fill:#A2130E;}
	.st21{fill:#5D472F;}
	.st22{fill:#456D61;}
	.st23{fill:url(#SVGID_2_);}
	.st24{fill:url(#SVGID_3_);}
	.st25{fill:#FFFFFF;}
	.st26{fill:#191919;}
	.st27{fill:#CD4B4B;}
	.st28{fill:none;stroke:#FFFFFF;stroke-width:1.3;stroke-linecap:round;stroke-linejoin:round;stroke-miterlimit:10;}
	.st29{clip-path:url(#SVGID_5_);fill:#4E8072;}
	.st30{clip-path:url(#SVGID_5_);}
	.st31{fill:#568779;}
	.st32{fill:#FBFBFB;stroke:#FBFBFB;stroke-width:2;stroke-miterlimit:10;}
	.st33{fill:#4E8072;stroke:#FFFFFF;stroke-miterlimit:10;}
	.st34{fill:#FBFBFB;}
	.st35{fill:#72BAA5;}
	.st36{fill:#42685C;}
	.st37{fill:#333333;}
	.st38{fill:#1E1E1E;}
	.st39{fill:none;stroke:#D1D1D1;stroke-miterlimit:10;}
	.st40{fill:#508272;}
	.st41{fill:#DDDDDD;}
	.st42{fill:#DAC9AE;}
	.st43{fill:#F1E0C0;}
	.st44{fill:#9D3F3F;}
	.st45{fill:#020202;}
	.st46{fill:#E2E2E2;}
	.st47{fill:#CD3030;}
	.st48{fill:#9C2C2C;}
	.st49{fill:#E9A88B;}
	.st50{fill:#FDC3A1;}
	.st51{fill:#D8A78E;}
	.st52{fill:#722020;}
	.st53{fill:#B7D8EB;}
	.st54{opacity:0.6;}
	.st55{fill:#87B8D1;}
	.st56{fill:#96B4BF;}
	.st57{fill:#DEE9F2;}
	.st58{fill:#D1957F;}
	.st59{fill:#91C3D6;}
	.st60{fill:#DDEAEB;}
	.st61{fill:#CECECE;}
	.st62{fill:#69A894;}
	.st63{fill:#B7A58E;}
	.st64{fill:#D5C1A8;}
	.st65{fill:#F5E4CA;}
	.st66{fill:#E24955;}
	.st67{fill:#FFE045;}
	.st68{fill:#E8C73D;}
	.st69{fill:#D1B337;}
	.st70{opacity:0.27;}
	.st71{fill:#F0DF9F;}
	.st72{fill:#D7C58B;}
	.st73{fill:#EDC959;}
	.st74{fill:#CBA848;}
	.st75{fill:#F7EDD6;}
	.st76{fill:#85ADE8;}
	.st77{fill:#77A0C9;}
	.st78{fill:#6C91BC;}
	.st79{fill:#95AD40;}
	.st80{fill:#F95353;}
	.st81{fill:#D14646;}
	.st82{fill:#E2E0E0;}
	.st83{fill:#C1BFBF;}
	.st84{fill:#A0A0A0;}
	.st85{fill:#CFCDCC;}
	.st86{fill:#6B3328;}
	.st87{fill:#262226;}
	.st88{fill:#8B4635;}
	.st89{fill:#A9594D;}
	.st90{fill:#B9B9B9;}
	.st91{fill:#AED14B;}
	.st92{fill:#A0C4EF;}
	.st93{fill:#6C4F34;}
	.st94{fill:#8B6C49;}
	.st95{fill:#642D25;}
	.st96{fill:#38271B;}
	.st97{fill:#553D29;}
	.st98{fill:#533B27;}
	.st99{fill:#785A3F;}
	.st100{fill:#100E10;}
	.st101{fill:#434343;}
	.st102{fill:#AAAAAA;}
	.st103{fill:#E7E7E7;}
	.st104{fill:#354759;}
	.st105{fill:#1F2B35;}
	.st106{fill:#644A33;}
	.st107{fill:#433021;}
	.st108{fill:#211711;}
	.st109{clip-path:url(#SVGID_7_);}
	.st110{fill:#6CAD97;}
	.st111{fill:#4D806E;}
	.st112{fill:#6F3127;}
	.st113{fill:#6B4F37;}
	.st114{fill:#B1B0AA;}
	.st115{fill:#291C13;}
	.st116{fill:#5E9C89;}
	.st117{fill:#634930;}
	.st118{fill:#50201B;}
	.st119{fill:#3F3F3F;}
	.st120{fill:#D4E6F9;}
	.st121{fill:#B5B6B6;}
	.st122{fill:#DAD9D8;}
	.st123{fill:#6C5036;}
	.st124{fill:#733629;}
	.st125{fill:#8D4741;}
	.st126{fill:#6AAA93;}
	.st127{fill:#DEDBCF;}
	.st128{fill:#C0C0C0;}
	.st129{clip-path:url(#SVGID_9_);}
	.st130{fill:#FDCC42;}
	.st131{fill:#E8B63D;}
	.st132{fill:#CA9837;}
	.st133{fill:#141E1A;}
	.st134{fill:none;stroke:#FFFFFF;stroke-miterlimit:10;}
	.st135{fill:#DAA990;}
	.st136{fill:#FDC5A6;}
	.st137{fill:#231A1E;}
	.st138{fill:#3F2F35;}
	.st139{fill:#D3D3D3;}
	.st140{fill:#FCC4A5;}
	.st141{fill:#D9A88F;}
	.st142{fill:#513F39;}
	.st143{fill:#F27D2F;}
	.st144{fill:#D8682A;}
	.st145{fill:#BC5724;}
	.st146{fill:#5C9C88;}
	.st147{fill:#477D6B;}
	.st148{fill:#4B6C8B;}
	.st149{fill:#5580A4;}
	.st150{fill:#735E38;}
	.st151{fill:#957D4B;}
	.st152{fill:#EAC771;}
	.st153{fill:#D0AF60;}
	.st154{fill:#A6927A;}
	.st155{fill:#68B2B6;}
	.st156{fill:#EFCB9B;}
	.st157{fill:#D4B085;}
	.st158{fill:#559696;}
	.st159{fill:#4C403B;}
	.st160{fill:#4E5979;}
	.st161{fill:#5B749C;}
	.st162{fill:#FBEBD6;}
	.st163{fill:#374055;}
	.st164{fill:#E15E4A;}
	.st165{fill:#C44F41;}
	.st166{fill:#AE3F38;}
	.st167{fill:#302A29;}
	.st168{fill:#151212;}
	.st169{fill:#93CED6;}
	.st170{fill:#81BABF;}
	.st171{fill:#CEAB5E;}
	.st172{clip-path:url(#SVGID_11_);}
	.st173{fill:#273D36;}
	.st174{fill:#314F46;}
	.st175{fill:#D7D7D7;}
	.st176{fill:#871E1C;}
	.st177{fill:#7CA0C8;}
	.st178{fill:#ABAAAA;}
	.st179{fill:#F5F3F2;}
	.st180{fill:#D9D8D7;}
	.st181{fill:#6483A1;}
	.st182{fill:#4A6C80;}
	.st183{fill:#B7B7B7;}
	.st184{fill:#CACACA;}
	.st185{fill:#F8EBD5;}
	.st186{fill:#AE9C92;}
	.st187{fill:#D4C7B4;}
	.st188{fill:#80766E;}
	.st189{fill:#CA3030;}
	.st190{fill:#C8B9A4;}
	.st191{fill:#7F7060;}
	.st192{fill:#3F3C3A;}
	.st193{fill:#232121;}
	.st194{fill:#E0E0E0;}
	.st195{fill:#AEADAD;}
	.st196{fill:#D8C5A9;}
	.st197{fill:#A58D75;}
	.st198{fill:#67594F;}
	.st199{fill:#D1D1D1;}
	.st200{fill:#939393;}
	.st201{fill:#BDA488;}
	.st202{fill:#AF9D89;}
	.st203{fill:#B98E7D;}
	.st204{fill:#AB8174;}
	.st205{fill:#F2BDA1;}
	.st206{fill:#D2A28A;}
	.st207{fill:#D1B596;}
	.st208{fill:#FF6060;}
	.st209{fill:#C54C4C;}
	.st210{fill:#91806B;}
	.st211{fill:#B08574;}
	.st212{fill:#232421;}
	.st213{fill:#0E0E0D;}
	.st214{fill:#3E685A;}
	.st215{fill:#1E302A;}
	.st216{fill:#8DDBC3;}
	.st217{clip-path:url(#SVGID_13_);}
	.st218{opacity:0.3;fill:#186657;enable-background:new    ;}
	.st219{clip-path:url(#SVGID_15_);}
	.st220{fill:#722E2E;}
	.st221{fill:#CE4B4B;}
	.st222{fill:#FBC3A4;}
	.st223{fill:#353427;}
	.st224{opacity:0.5;}
	.st225{fill:#F9F6E7;}
	.st226{opacity:0.4;}
	.st227{fill:#FFE580;}
	.st228{fill:#67434D;}
	.st229{fill:#CEC7C0;}
	.st230{fill:#6694DD;}
	.st231{fill:#F4EDE6;}
	.st232{fill:#B95163;}
	.st233{fill:#964154;}
	.st234{fill:#4D7BAF;}
	.st235{fill:#CBB046;}
	.st236{fill:#7D7D7D;}
	.st237{fill:#F9F7F6;}
	.st238{fill:#ABABAB;}
	.st239{fill:#56A9B4;}
	.st240{fill:#D8BF48;}
	.st241{fill:#8C3939;}
	.st242{opacity:0.38;}
	.st243{fill:#FADB74;}
	.st244{fill:#E8AF9A;}
	.st245{fill:#BD907F;}
	.st246{opacity:0.2;}
	.st247{fill:#CBB99C;}
	.st248{opacity:0.78;fill:#FFFFFF;}
	.st249{fill:#424242;}
	.st250{fill:#D3CCBF;}
	.st251{fill:#1E8472;}
	.st252{fill:#2C2C2C;}
	.st253{fill:#131313;}
	.st254{fill:#181818;}
	.st255{fill:#FFC6A6;}
	.st256{fill:#EBAB90;}
	.st257{fill:#9A9898;}
	.st258{fill:#DCD9D9;}
	.st259{fill:#F4F6EC;}
	.st260{fill:#D04B4B;}
	.st261{fill:#255C99;}
	.st262{fill:#1B4A6D;}
	.st263{fill:#FEC6A7;}
	.st264{fill:#DBAA91;}
	.st265{fill:#133142;}
	.st266{fill:#9F3F3F;}
	.st267{fill:#999898;}
	.st268{fill:#DBD9D9;}
	.st269{fill:#F5F7ED;}
	.st270{fill:#D1CCBF;}
	.st271{fill:#303030;}
	.st272{fill:#1A1A1A;}
	.st273{fill:#FCDDA7;}
	.st274{clip-path:url(#SVGID_17_);}
	.st275{fill:none;stroke:#4E8072;stroke-miterlimit:10;}
	.st276{fill:url(#SVGID_18_);}
	.st277{fill:none;stroke:#FFFFFF;stroke-linecap:round;stroke-linejoin:round;stroke-miterlimit:10;}
	.st278{fill:none;stroke:#141E1A;stroke-miterlimit:10;}
	.st279{fill:url(#SVGID_19_);}
	.st280{clip-path:url(#SVGID_21_);}
	.st281{fill:#686868;}
	.st282{opacity:0.3;fill:none;stroke:#FFFFFF;stroke-miterlimit:10;}

  /*
  #sun-big,
  #sun-small  {
    animation: resize 4s ease infinite;
    transform-origin: center;
  }

  @keyframes resize {
    from {
      transform: scale(1);
    }
    50% {
      transform: scale(1.2);
    }
    to {
      transform: scale(1);
    }
  }
  */

</style>
<g>
	<g>
		<g>
			<rect x="-14.4511585" class="st0" width="1580.7631836" height="248.228363"/>
		</g>

			<radialGradient id="SVGID_1_" cx="449.7589722" cy="129.6150665" r="445.6247253" gradientTransform="matrix(1.0024765 0 0 1 0.5259676 0)" gradientUnits="userSpaceOnUse">
			<stop  offset="0" style="stop-color:#6CA792"/>
			<stop  offset="0.6547095" style="stop-color:#6CA994;stop-opacity:0.3415915"/>
			<stop  offset="0.8902566" style="stop-color:#6CB099;stop-opacity:0.1047137"/>
			<stop  offset="0.994382" style="stop-color:#6CB69F;stop-opacity:0"/>
		</radialGradient>
		<path class="st1" d="M596.1231079,130.3060455c-0.1069946-2.4650879-0.3823242-4.8837891-0.7981567-7.2524414
			l697.9969482-122.784668L920.989563,0.0000188L592.7492676,113.4897614
			c-0.6052246-1.6397705-1.284668-3.2408447-2.0355225-4.7996826L788.3359375,0.0000188h-88.1286011L585.5946655,100.1435699
			c-1.7056274-2.3302002-3.5955811-4.5061035-5.6370239-6.520874l68.1165161-93.6226807h-39.8650513L568.123291,84.8236237
			c-3.4558105-1.8781738-7.1353149-3.3741455-10.9924927-4.4232178l24.0670166-80.4003906H555.300354l-11.21521,78.6212158
			c-0.1150513-0.0007324-0.2283936-0.0089111-0.3433838-0.0089111c-6.6152344,0-12.9382324,1.2774658-18.7668457,3.5859375
			L511.4645081,0.0000188H489.181427l25.4801941,87.7026367c-3.1144104,2.147583-5.9874573,4.6346436-8.5834656,7.40271
			L461.5141907,0.0000188h-35.2193298l72.2042542,105.3942871c-1.5467834,2.7205811-2.8777161,5.5872803-3.9516602,8.5845947
			L356.0348816,0.0000188L254.9357758,0.2689397l237.1945953,122.9467773
			c-0.3688354,2.1386719-0.6268005,4.3166504-0.7450256,6.5344238L84.8799515,0.269L0,0v94.396843l491.6017151,44.1654282
			c0.1649475,1.602417,0.3999023,3.1829834,0.6970215,4.7406006L0,227.2421875v17.9859772l136.1807404-0.0343018h150.3792877
			l208.3437805-92.6945801c0.8979797,2.3690186,1.9503784,4.6563721,3.1488953,6.8492432l-147.8630676,85.8453369h56.0278015
			l90.4057007-80.8825684l5.61203,3.5209961l-54.4049072,77.3615723h33.1064453l31.8210449-68.7328491
			c2.9511108,2.236145,6.1386719,4.1546631,9.5144653,5.7216187L503.36026,245.1938629h25.7224426l6.3726807-58.940979
			c2.6998291,0.442749,5.4659424,0.6793823,8.286377,0.6793823c1.8184204,0,3.6153564-0.0961914,5.3861084-0.2827759
			l10.3776855,58.5443726h27.0345459l-24.6798706-61.5834961c3.3167725-1.2612305,6.4720459-2.8639526,9.4351807-4.7577515
			l37.9071045,66.3412476h39.0241699l-67.1170044-74.4344482c2.8101807-2.9482422,5.2990112-6.2233887,7.3999023-9.7717285
			l126.7848511,84.2061768h91.0359497l-213.3632812-93.7095947c1.0543823-2.9577637,1.852478-6.0412598,2.3963013-9.2158203
			l371.9177856,102.925415h452.0977173l0.144165-136.4278564L596.1231079,130.3060455z"/>
		<g>
			<path id="sun-big" class="st2" d="M379.7587585,135.6233063c0,25.5784912,5.5149231,49.9142914,15.3414917,71.661087h297.8053894
				c9.8265381-21.7467957,15.3416138-46.0825958,15.3416138-71.661087c0-55.4597092-25.7419434-104.6777039-65.5617676-135.6233063
				H445.3205261C405.5006409,30.9456005,379.7587585,80.1635971,379.7587585,135.6233063z"/>
			<path id="sun-small" class="st2" d="M635.4503174,135.6233978c0-52.0888977-40.9107056-94.4434967-91.4473267-94.4434967
				c-50.5367432,0-91.4472961,42.2509995-91.4472961,94.4434967c0,28.6851044,12.4335938,54.3670959,31.9865112,71.6609955
				h118.9215393C623.0166626,189.9904938,635.4503174,164.3085022,635.4503174,135.6233978z"/>
		</g>
		<g>
			<ellipse class="st3" cx="543.7416992" cy="132.7722931" rx="52.4417992" ry="54.1599998"/>
			<path class="st4" d="M572.218811,87.310997c6.9187012,8.6988068,11.1300659,19.7793045,11.1300659,31.895401
				c0,27.6496048-21.6585693,50.0177994-48.4310303,50.0177994c-18.4498901,0-34.4933167-10.6662903-42.7154236-26.4068909
				c4.512146,25.1641998,25.8699036,44.2185974,51.5393372,44.2185974c28.9784546,0,52.4418335-24.2322083,52.4418335-54.1600037
				C596.1834717,113.7179031,586.6577759,96.941803,572.218811,87.310997z"/>
			<ellipse class="st4" cx="515.7661133" cy="113.4069977" rx="2.5067425" ry="2.5889001"/>
			<ellipse class="st4" cx="531.2078857" cy="107.7114029" rx="6.2168574" ry="6.4204998"/>
			<ellipse class="st4" cx="524.9910278" cy="92.6957016" rx="3.008131" ry="3.1066999"/>
		</g>
	</g>
	<g>
		<g>
			<path class="st5" d="M1544.5528564,236.1201935c-1.2382812-0.5958252-2.7697754-0.2615356-3.8354492,0.5652466
				c1.7353516-4.2451782,2.8457031-8.8733521,0.637207-12.7123413c-0.4799805-0.8340454-1.1223145-1.6018066-1.967041-2.0626831
				c-1.9875488-1.0843506-4.5900879-0.1487427-6.1027832,1.5358887c-1.5124512,1.6846924-2.1928711,3.9359741-2.8300781,6.1084595
				c0.2202148-4.1456299-0.9919434-8.3539429-3.3840332-11.7470093c-0.4223633-0.5993652-0.9509277-1.217041-1.6757812-1.3280029
				c-0.8017578-0.1227417-1.5439453,0.4153442-2.1477051,0.9568481c-2.871582,2.5756836-5.0107422,5.9591675-6.105957,9.6578979
				c1.2006836-3.3144531,1.5595703-6.9300537,1.0339355-10.4158325c-0.2443848-1.6208496-0.7788086-3.3607178-2.1535645-4.2531128
				c-1.5146484-0.9829712-3.6098633-0.576355-5.0686035,0.4876099c-1.4587402,1.0639038-2.423584,2.6569824-3.3498535,4.2067871
				c0.5002441-4.27771,0.2177734-8.6456299-0.8288574-12.8233032c-0.1530762-0.611084-0.359375-1.2711182-0.8850098-1.6181641
				c-0.715332-0.472168-1.6760254-0.1550293-2.4313965,0.25c-2.2678223,1.2162476-4.130127,3.1578369-5.2875977,5.4546509
				c3.2468262-7.6530762,3.8432617-16.4106445,1.6225586-24.4248047c-0.4291992-1.5488892-1.1750488-3.2835693-2.7263184-3.7033691
				c-1.7785645-0.4812012-3.4399414,1.0631104-4.4655762,2.593811c-1.9123535,2.8543701-3.0822754,6.18927-3.4338379,9.605835
				c-0.395752-3.9199829-1.3759766-7.7000732-3.9067383-10.6307983c-0.7966309-0.9223633-1.8525391-1.7776489-3.0710449-1.7537842
				c-2.0107422,0.0394287-3.1442871,2.3018188-3.6481934,4.2489624c-0.2080078,0.8044434-0.3786621,1.617981-0.527832,2.4354248
				c-0.1572266-0.75-0.3596191-1.4906616-0.6647949-2.2075195c-1.5983887-3.7542725-6.3696289-6.4506226-9.8825684-4.3746948
				c1.3681641-5.1470337,1.6064453-10.5912476,0.6938477-15.8380737c-0.1650391-0.9499512-0.3867188-1.9342041-1-2.6778564
				c-1.8347168-2.2237549-5.8208008-0.5404053-6.7714844,2.1812744c2.3342285-5.6325684,3.2685547-11.8391113,2.6958008-17.9091797
				c-0.2219238-2.3500977-0.6987305-4.7598877-2.0539551-6.6923828c-1.3552246-1.9326172-3.7719727-3.276123-6.0773926-2.7695312
				c-3.8146973,0.8382568-5,5.602417-7.5869141,8.5288086c1.5639648-2.2145996,2.7253418-5.1154785,1.6313477-7.5958252
				c-1.0942383-2.4803467-5.348877-3.1743164-6.3493652-0.6547852c0.7949219-1.7659912,1.6069336-3.6168213,1.5075684-5.5510254
				c-0.0993652-1.934082-1.4272461-3.9537354-3.3549805-4.1401367c-2.1599121-0.2087402-3.8193359,1.7889404-5.052002,3.5748291
				c1.5080566-2.7570801,2.810791-5.7281494,2.9406738-8.8681641c0.1298828-3.1398926-1.1184082-6.4904785-3.7746582-8.1699219
				s-6.7353516-1.0631104-8.2338867,1.6992188c1.1289062-3.9501953,2.2692871-8.0234375,1.8161621-12.1066895
				c-0.4528809-4.083252-2.8974609-8.2277832-6.8300781-9.4168701c-4.7441406-1.4344482-9.862793,1.9954834-12.0493164,6.4436035
				c-0.8239746,1.6762695-1.3344727,3.4549561-1.6484375,5.2860107c-0.6779785,1.7113037-1.1010742,3.513916-1.2248535,5.3469238
				c-1.4001465-5.8093262-2.7001953-16.3907471-9.3000488-14.9384766c-8.7001953,1.7636719-10.1000977,15.7684326-8,24.5861816
				c-3.2001953-4.6682129-13-4.0456543-16.3000488,1.7636719c-3.5002441,6.1206055-2,13.5898438,0,20.5402832
				c-2-2.9046631-7.1000977-3.6308594-10.1999512-1.244873c-3.800293,2.9046631-5,8.1953125-6,12.9674072
				c0.2998047-4.6682129,0.699707-9.6477051-2-11.8262939c-2.6999512-2.1784668-5.7001953-1.7635498-9,0.5187988
				c-0.1000977-6.0168457-1.300293-15.2497559-7.6000977-15.4572754c-4.5998535-0.2072754-6.5,7.8842773-6.3999023,12.8637695
				c-1-4.2532959-8.8000488-5.083252-11.6000977-0.9337158c-3.0998535,4.5645752-1.8000488,10.7889404-0.3999023,16.1832275
				c-1.5-6.6391602-11.4001465-7.4691162-16-2.489624c-4.5,4.8756104-4.7001953,12.5523682-3.6000977,19.1917725
				c-2.1000977-6.4318848-10.1999512-10.0627441-16.1999512-7.157959c-6,2.904541-8.5998535,11.5149536-5,17.3244019
				c-3.6999512-4.8757935-11-6.2244263-16.0998535-3.1122437c-5.1000977,3.1122437-7.4001465,10.3739014-5.1000977,15.9758301
				c-2.5998535-4.7720337-8.8000488-6.9505005-13.6999512-4.7720337c-4.8999023,2.0748291-7.6999512,8.2991333-6.1999512,13.486145
				c-1.6000977-2.4897461-3-8.2991333-8.5998535-7.15802c-5.1999512,1.0374146-6.9001465,8.6104126-7.4001465,15.4570923
				c-1.3000488-5.3944092-6.6999512-9.5440063-12.1999512-9.232666c-5.5,0.3111572-10.4001465,4.8756714-11.1999512,10.3739014
				c0-9.9590454-15.8000488-14.31604-20.6999512-5.7057495c2.3000488-5.3943481-0.4001465-12.3448486-5.5998535-14.730896
				c-5.2001953-2.3859863-12,0.414917-14.3000488,5.7056274c0.3999023-4.668335,0.3999023-9.9589844-2.9001465-13.2786255
				c-2.3999023-2.3859863-6.8999023-1.7636108-8.7998047,0.414917c0.2998047-3.4232788-1.3000488-7.0541992-4.2001953-8.8178101
				c-3.7998047-2.3859253-9.2998047-1.1411133-11.8999023,2.5935059c2-4.4608154,4-9.5440063,2.5998535-14.2122192
				c-1.5-4.7720947-8.3000488-7.4693604-11.1999512-3.5272217c1.3000488-6.0168457,4.6000977-12.8635254-0.1999512-18.2580566
				c-2.1999512-2.4897461-7.3000488-1.1411133-10.8000488-0.3112793c2.8999023-5.4980469,2.8000488-13.3822021-2.1000977-17.1168213
				c-4.1999512-3.2159424-11.1999512-0.5186768-12.4997559,4.0457764
				c-0.6000977-5.3942871-5.0002441-10.2702637-10.3000488-10.8925781
				c-6.2001953-0.6223145-12.3000488,4.6682129-12.7001953,11.1000977
				c-0.7998047-7.7805176-6.0998535-18.5693359-13.2998047-15.6645508
				c-7.3000488,2.9046631-7.6000977,11.9299316-6.8000488,20.4365234
				c-0.5998535-6.2243652-7.3000488-11.1000977-13.3000488-9.5439453
				c-5.8999023,1.5561523-9.5998535,9.1289062-7.0998535,14.9383545c-2.6000977-5.7055664-9.6001587-8.817749-15.4002075-6.8468018
				c-5.7998047,1.9711914-9.6999512,8.6103516-8.5998535,14.8347168c-2.2001953-10.0627441-17.5-13.4859619-23.6000977-5.1868896
				c4.1999512-5.7056885,0.6999512-15.3533936-6.0998535-16.9095459c1.5-4.0457764,4.5998535-10.0627441-0.3000488-12.7597656
				c-4.9001465-2.6972656-8.5998535-1.1411133-12.3000488,2.6970215c5.4001465-6.4316406-1.5998535-17.9467773-9.7998047-17.3243408
				c-6.800293,0.5186768-11.8000488,7.3653564-12.2001953,14.4197998c-2.5-5.1870117-12-7.0544434-16.6999512-2.2823486
				c-5.9001465,6.0169678-5.6000977,15.6646729-4.9001465,24.1712646
				c-0.6999512-5.8093262-6.7998047-10.2702637-12.3999023-9.0252686c-4.1999512,0.9335938-7.3000488,5.0831299-7.8000488,9.3365479
				c-2.0998535-4.7720947-9.3000488-7.4692383-14.0998535-4.4609375c-5.4001465,3.4234619-7,10.8927002-5.6000977,17.4282227
				c-1.7998047-4.6682129-6.6000977-8.0916748-11.6000977-7.7805176c-5.699707,0.3112793-10.699707,5.6020508-10.8999023,11.411377
				c0.6000977-8.0915527-10.8999023-12.6561279-17.2998047-7.8840332
				c-5.8000488,4.2531738-7.3000488,12.5522461-5.9001465,19.8139648
				c-2.5998535-6.3278809-13.8000488-7.7802734-16.9001465-1.1411133c0.3330078-3.7336426-1.2995605-8.6976318-5.3999023-9.0251465
				c-4.1003418-0.3276367-7.6003418,3.8218994-8,9.1289062c0.6000977-4.1494141-2.2001953-8.6103516-6.1999512-9.7514648
				c-4-1.0373535-8.6000977,1.3486328-10.1000977,5.2907715c0.3000488-4.6682129-5.3999023-6.5356445-9.5998535-4.9794922
				c-0.1000977-0.4150391-0.3000488-0.7261963-0.4001465-1.1411133c-1.5-3.4233398-6.0998535-5.913208-8.8999023-3.4233398
				c-0.8000488-4.4609375-3.6000977-10.2702637-7.8000488-8.7141113c-1.4001465,0.5186768-2.4001465,1.8671875-3.1999512,3.2158203
				c-3.2001953,5.3945312-4.7001953,11.8261719-4.3000488,18.1542969
				c-1.8000488-4.9794922-9.8999023-3.6308594-12.1999512,1.1412354s-0.8000488,10.3739014,0.7998047,15.4570923
				c-2.7998047-3.0084839-8.1999512-1.6599121-10.6999512,1.65979c-2.5,3.3196411-3,7.7804565-3.3999023,11.9300537
				c-1.5-4.7720337-10.2001953-3.3197021-10.1000977,1.7635498c-0.1000977-3.0084839-0.1999512-6.1206055-1.8000488-8.7140503
				c-1.4997559-2.5935059-5-4.1495972-7.5-2.5935059c1.3000488-5.8094482,1.8000488-11.7225342,1.3000488-17.6356201
				c-0.1000977-1.9711914-0.5-4.1496582-1.8000488-5.6019287c-1.2998047-1.4523926-3.9997559-1.7635498-5.0998535-0.1037598
				c0.8164062-4.8920898,1.6159668-9.8569336-2.1835938-14.1422119c-1.7001953-2.1784668-5.9165039-0.9000244-7.8164062,1.0710449
				c-1.9001465,1.9710693-2.5,4.7719727-3.1000977,7.4692383c-0.0837402-10.5285645-4.5-12.7598877-5.5-13.2785645
				c-7.1669922-2.5234375-10.0002441,14.5070801-8.8999023,24.6899414c-0.5-3.3198242-2.1000977-7.6767578-5.3999023-7.3654785
				c-7.6171875,0.8134766-6.5336914,16.8930664-3.800293,25.5198364c-0.7998047-3.0085449-5.8999023-4.3571167-8.5998535-2.0748291
				c-3.0998535,2.6972046-3.5,7.3655396-3.6999512,11.5150146c-0.1000977-3.5270996-0.5-7.2617188-2.8000488-9.8552246
				s-7.1999512-2.6972046-8.5998535,0.4150391c2-3.4234009,1.2998047-8.2991333-1.5-11.1001587
				c-2.8000488-2.8010254-7.5-3.3195801-10.8000488-1.244873c3.0998535-4.7719727,1.5998535-12.0336914-3.1000977-15.145874
				s-11.8000488-1.5560303-14.8000488,3.3197021c1.1000977-5.6020508,2.3000488-11.2038574,3.4001465-16.7020264
				c0.6999512-3.5272217,1.3999023-7.4693604-0.4001465-10.6851807c-1.7998047-3.1120605-7.1999512-3.8383789-8.5-0.5187988
				c0.3000488-5.7055664-1.1999512-14.1083984-7.3999023-15.2495117c-7.8999023-1.4523926-12.1999512,9.1290283-13,17.5319824
				c-0.8000488-5.913208-2.6999512-11.6188965-5.6000977-16.8057861c-0.7998047-1.4523926-1.7998047-3.0084229-3.2998047-3.7347412
				c-3.7001953-1.7634277-7.7001953,2.1787109-8.8000488,6.2243652c-1.1000977,3.7346191-2.6999512,7.1580811-2.9001465,11.3076172
				c-0.3999023-3.4233398-2.5998535-6.8466797-5.8999023-5.9130859c-3.6000977,1.0373535-5.5,4.9794922-6.3999023,8.6103516
				c-1.7001953,6.8468018-1.2001953,14.0048828-0.8000488,21.059082c-0.1999512-4.5645752-6.9001465-6.1206055-10.3000488-3.1121826
				s-3.8999023,8.0916748-3.6999512,12.7598877s1,9.3364258-0.6000977,13.5897827
				c0.5-4.5643921-4.8000488-7.987854-9.1999512-7.0542603c-4.3999023,0.8299561-7.6999512,4.4608154-10.3000488,8.1953735
				c-0.1999512-3.8383179-0.5-7.6766968-2.1999512-11.1000366c-1.6999512-3.3195801-5.3999023-5.9130859-8.9999695-5.083252
				c-5.8999023,1.3486328-6.8000488,9.4403076-6.3999023,15.6646118c-3.9001465-5.0831909-12.7001953-2.1785278-15.5,3.6309204
				c-2.8000488,5.8093872-1.4001465,12.7598877,0,19.0879517c-2.9001465-4.7719727-9.9001465-5.2906494-14.6000977-2.3859863
				c-4.6999512,2.8009033-7.5,8.0916138-9.6000977,13.2786255c1.5-3.9421387-0.5-8.9216309-4.2998047-10.4777222
				c-3.8000488-1.5559692-8.7001953,0.5186768-10.3000488,4.4608154c1.8999023-4.9794312,5.5-13.7973022,0.1999512-21.1627197
				c-1.2998047-1.8673706-4.6000977-2.1785889-5.3999023-0.1038208c0.5-4.7719727-3.6000977-9.5439453-8.3000488-9.5439453
				c-1.9399414,0-3.7895508,0.8027954-5.2631836,2.0692139c-0.3981934-2.0426025-0.543457-3.4595947-0.2312012-3.7318115
				c0.8027344-0.7001953,1.1523438-1.7723389,1.4672852-2.7897949c0.8149414-2.6315918,1.6298828-5.2633057,2.4445801-7.8950195
				c1.3283691-4.2900391,2.6447754-9.0023193,0.9396973-13.1571045c-1.7055664-4.1546631-7.940918-6.4754639-10.7749023-2.991333
				c1.1896973-2.6428223,0.4345703-6.027832-1.765625-7.9143066c-2.2001953-1.8867188-5.6606445-2.1164551-8.0910645-0.5373535
				c1.0332031-2.4454346-0.7329102-5.6317139-3.354248-6.0515137c-2.621582-0.4197998-5.2941895,2.0556641-5.0761719,4.7016602
				c-0.4428711-5.0169678-1.6916504-11.1018066-6.4882812-12.6374512c-3.2922363-1.0539551-6.9584961,0.7559814-9.1135254,3.4592285
				c-2.1550293,2.703125-3.1281738,6.1342773-4.052002,9.4655762c-0.6875-2.8188477-1.8222656-5.8157959-4.3361816-7.2650146
				c-2.513916-1.4490967-6.5847168-0.1176758-6.6828613,2.7823486c-1.03125-3.8254395-2.4504395-7.5458984-4.2285156-11.0861816
				c-0.5454102-1.0856934-1.3208008-2.2900391-2.5322266-2.3835449c-1.3081055-0.1010742-2.2851562,1.1496582-2.9169922,2.2998047
				c-2.0253906,3.6884766-3.2119141,7.8286133-3.4726562,12.0283203c-0.0053711-2.5880127-2.699707-4.9000244-5.3203125-4.5266113
				c-2.8154297,0.401123-4.8395996,3.4871826-4.3515625,6.2885742c-0.5632324-3.8669434-5.9277344-5.4604492-9.3056641-3.4960938
				c-3.3781738,1.9644775-4.8911133,6.081543-5.2990723,9.9678955c-1.1730957-1.6868896-2.4782715-3.4755859-4.4267578-4.1268311
				c-1.9484863-0.651123-4.6052246,0.5769043-4.5461426,2.6304932c-0.2658691-3.2290039-2.965332-6.0941162-6.1728516-6.5513916
				c-3.2072754-0.4575195-6.6000977,1.5388184-7.7578125,4.5648193c-1.0495605-3.5797119-5.081543-5.9976807-8.7338867-5.2373047
				c-3.3430176,0.6959229-5.9072266,3.9608154-5.9611816,7.347168c-0.2995605-3.8662109-2.2966309-7.7271729-5.7766113-9.3796387
				c-3.7626953-1.7866211-9.1005859-0.0024414-10.2045898,4.0137939c-0.4250488-4.1549072-2.7131348-8.373291-6.5874023-9.9338379
				s-9.1481934,0.6137695-9.8532715,4.7305908c0.0134277-6.5766602-1.2893066-13.1534424-3.8088379-19.2283936
				c-0.5285645-1.274292-1.1530762-2.581543-2.2607422-3.4040527c-3.130127-2.3239746-7.6875,0.815918-8.973877,4.4963379
				c-1.286377,3.6801758-0.809082,7.8000488-2.112793,11.4742432c-0.0627441-2.2651367-2.3886719-4.19104-4.6257324-3.8299561
				c-1.8796387,0.3034668-3.2924805,2.1601562-3.314209,4.0325928c-0.654541-3.260498-3.8544922-5.9759521-7.1826172-5.5991211
				c-2.7116699,0.3071289-4.8859863,2.8104248-5.2043457,5.4412842c-0.6914062-1.5393066-2.076416-2.7851562-3.7392578-3.1190186
				c-2.6030273-0.522583-5.456543,1.2640381-6.123291,3.8338623c-0.1772461-2.2878418-0.4077148-4.7192383-1.8103027-6.5350342
				c-1.402832-1.8157959-4.4267578-2.5601807-5.9785156-0.8699951c-0.7009277,0.7634277-0.9519043,1.8288574-1.1276855,2.8503418
				c-0.487793,2.8349609-0.5952148,5.7352295-0.3186035,8.5986328c-1.2983398-2.7692871-3.1018066-5.8144531-6.1147461-6.3405762
				c-3.1855469-0.5561523-6.1865234,2.2126465-7.0678711,5.3242188s-0.1999512,6.4261475,0.484375,9.5869141
				c-0.4909668-2.3215332-2.7099609-4.1568604-5.0825195-4.2033691c-2.3723145-0.0466309-4.6616211,1.7004395-5.2434082,4.0007324
				c-0.0661621-3.9812012-4.6052246-7.1928711-8.3815918-5.9306641c-3.5344238,1.1813965-5.2446289,5.895752-3.5300293,9.135498
				c-2.0429688,0.298584-4.0527344,1.3505859-5.1467285,3.0869141c-2.1237793,3.3708496-1.8530273,7.548584-1.0830078,11.5599365
				l-0.8171387,1.7259521c-3.4260254-1.62146-8.3781738,1.317627-9.9963379,5.1828613
				c-1.8583984,4.4390869-1.3173828,9.5437012-2.8032227,14.1210938c-0.0966797-5.3625488-6.9870605-8.828125-11.8703613-6.6098633
				c-4.1608887,1.8901367-6.3696289,6.6582031-6.217041,11.2670898c-1.3513184-4.1310425-7.0615234-6.6676025-11.2878418-4.7629395
				c-4.5246582,2.0389404-6.7165527,7.4227905-6.291748,12.4113159c-0.8723145-4.651001-4.1894531-9.0742188-8.8354492-9.5214844
				c-3.666748-0.3530273-7.0852051,3.0343018-7.5053711,6.3967285c-0.7790527-1.887085-1.9108887-3.522644-3.6079102-4.2206421
				c-0.4829102-3.6938477-1.2141113-7.3798828-1.9875488-10.9863281c-0.965332-4.5010986-2.0544434-9.1541748-4.8825684-12.7866211
				c-0.9619141-1.2355957-2.4667969-2.4204102-3.9523926-1.925293c-0.7648926,0.2548828-1.3222656,0.9067383-1.7956543,1.5593262
				c-2.8093262,3.8735352-4.0197754,8.6459961-5.1721191,13.2902832c-0.098877-1.8935547-0.2053223-3.8244629-0.8913574-5.592041
				c-0.6865234-1.7674561-2.0639648-3.3758545-3.9030762-3.8366699c-2.5219727-0.6320801-5.1716309,1.119873-6.3520508,3.4366455
				c-1.1801758,2.3167725-1.2033691,5.0406494-1.0148926,7.6339111c0.1884766,2.5931396,0.5605469,5.2190552,0.0817871,7.7746582
				c-0.9782715-1.8944092-1.9870605-3.8295898-3.5493164-5.2805176s-3.8144531-2.3466797-5.8586426-1.7407227
				c-3.3486328,0.9926758-4.4416504,5.1886597-4.4284668,8.6813354c0.0134277,3.5204468,0.572998,7.0133057,1.1311035,10.4892578
				c-0.4521484-1.9099731-0.9250488-3.8677368-2.0285645-5.4908447c-1.1037598-1.6231689-2.9934082-2.8633423-4.9418945-2.6279907
				c-2.7233887,0.3289795-4.3967285,3.9639282-2.8757324,6.2467651c-1.1914062-1.510376-1.7426758-3.4141235-2.628418-5.1218872
				c-0.885498-1.7077637-2.3352051-3.3555908-4.2504883-3.5366211c-2.1269531-0.2010498-4.0429688,1.5592041-4.753418,3.5742798
				c-0.7104492,2.0150146-0.4992676,4.2229004-0.279541,6.3482056c0.3820801,3.6914673,0.763916,7.3829956,1.145752,11.0745239
				c-1.0563965-2.7739258-4.140625-4.6213379-7.0847168-4.2438354c-1.0563965,0.135437-2.1279297,0.5647583-2.7712402,1.4136963
				c-0.4545898,0.6000977-0.6555176,1.3521729-0.7944336,2.0921631c-0.6962891,3.7107544-0.0097656,7.651001,1.8496094,10.93396
				c-0.9958496-1.1082153-2.802002-1.5136108-4.2138672-0.8978882c-1.7851562,0.7786255-2.826416,2.7837524-2.8649902,4.7311401
				s0.7775879,3.8240967,1.861084,5.442749c0.420166,0.6275635,0.9147949,1.2376099,1.473877,1.7595825
				c-0.3481445,0.6166992-0.494873,1.340332-0.5322266,2.0534668c-0.1069336,2.0473022,0.5771484,4.206543,2.1333008,5.5410767
				c-1.9946289-0.2287598-4.0617676,1.0720825-4.71875,2.9694214s0.1635742,4.1977539,1.8728027,5.2513428
				c-1.0959473-0.0426025-2.1918945-0.0852051-3.2875977-0.1278076c-0.7949219-0.0309448-1.6157227-0.0578003-2.3574219,0.2289429
				c-1.236084,0.4777222-2.0168457,1.7644653-2.2353516,3.0714722c-0.2185059,1.3069458-0.3493652,2.4336548-0.052002,3.7249146
				h119.5134277h1.75l1409.7004395,1.5670624c0.2194824-0.2369995,0.5230713-2.094162,0.654541-2.3923798
				C1548.961792,242.0703278,1546.8157959,237.2091827,1544.5528564,236.1201935z"/>
		</g>
		<g>
			<path class="st6" d="M1551.8608398,248.228363c-0.8054199-1.6051025-2.5581055-3.1838379-4.7625732-3.5164795
				c-2.3293457-0.3515015-4.9277344,0.2455444-6.1152344,2.2802734c1.6086426-2.1903076,1.0043945-5.7681274-1.3852539-7.0619507
				s-5.9145508,0.4671631-6.057373,3.1808472c-0.3776855-1.9810791,0.1113281-4.0101318,0.5070801-5.9876709
				c0.395752-1.9776001,0.6896973-4.086731-0.0454102-5.9647217c-0.7353516-1.8780518-2.8520508-3.3596191-4.7602539-2.7069092
				c-1.3105469,0.4482422-2.1374512,1.7096558-2.8642578,2.8883667c-0.1369629-3.0827637-0.501709-6.1553955-1.090332-9.1845093
				c-0.1567383-0.8062134-0.3757324-1.684021-1.0410156-2.1655273c-0.8603516-0.6228638-2.1391602-0.2752686-2.8830566,0.4829102
				c-0.7438965,0.7582397-1.0837402,1.8133545-1.3996582,2.8275146c-0.7675781-2.4212646-2.2937012-5.3685303-4.8161621-5.0702515
				c-2.5527344,0.3018188-3.3242188,3.586853-3.4655762,6.1535034c-0.1999512-2.6131592-0.8779297-5.1889648-1.9907227-7.5617676
				c-0.4572754-0.9747314-1.097168-2.0049438-2.1396484-2.2735596c-1.862793-0.4799194-3.2607422,1.6950684-3.7976074,3.5423584
				c-1.0439453,3.5923462-1.3779297,7.3895874-0.9768066,11.1090088c-0.5510254-2.9669189-1.3696289-5.8840942-2.4431152-8.7043457
				c-0.2084961-0.5479736-0.451416-1.1243286-0.934082-1.4571533c-0.7878418-0.543396-1.940918-0.1896973-2.5646973,0.5361938
				c-0.6240234,0.7258911-0.8378906,1.7114258-0.9736328,2.6588745c-0.1494141,1.0428467-0.2128906,2.0958252-0.2243652,3.149292
				c-0.282959-1.6245117-0.7338867-3.2197266-1.3552246-4.7471924c-0.5078125-1.2489624-1.1674805-2.5037231-2.2709961-3.2785034
				c-1.1035156-0.7748413-2.7539062-0.9125977-3.7353516,0.0117188c-0.9089355,0.8557129-0.9692383,2.2595825-0.923584,3.5070801
				c0.0895996,2.4396362,0.3679199,4.8693848,0.7910156,7.2737427c-0.1674805-0.3571777-0.3532715-0.7058716-0.5817871-1.0337524
				c-1.2241211-1.7556763-3.7456055-2.8051147-5.5737305-1.6923828c-0.7758789,0.472168-1.3132324,1.2506104-1.7480469,2.0479736
				c-0.9460449,1.7344971-1.5065918,3.6737061-1.6538086,5.6435547c-0.0463867-1.2494507-0.2573242-2.493103-0.6513672-3.6798096
				c-0.239502-0.7218628-0.5817871-1.4705811-1.2365723-1.8573608c-1.0422363-0.6154175-2.4597168-0.0068359-3.1425781,0.9923706
				s-0.8210449,2.2607422-0.9394531,3.46521c-0.0720215-2.1622314-0.4509277-4.3139648-1.1220703-6.3706055
				c-0.1760254-0.5397949-0.3901367-1.0993652-0.8266602-1.4625244c-0.8212891-0.6831665-2.1384277-0.3731689-2.8930664,0.3827515
				c-0.7546387,0.7558594-1.0876465,1.8237915-1.3942871,2.8469849c0.1945801-4.0519409-0.3857422-8.1398315-1.7004395-11.9775391
				c-0.6799316-1.9847412-2.3024902-4.28479-4.3117676-3.6812744c-1.3337402,0.4005737-1.9572754,1.9012451-2.3388672,3.2404785
				c-0.8955078,3.144043-1.4260254,6.3919678-1.5776367,9.6575928c-0.7336426-2.0865479-1.517334-4.2533569-3.1069336-5.7913818
				c-1.5893555-1.5380249-4.2407227-2.2218018-6.0378418-0.9324951c-1.8146973,1.3018188-2.0136719,3.9467163-1.5439453,6.1300049
				c0.4697266,2.1832275,1.4331055,4.3096924,1.3149414,6.5397949c-0.7404785-2.7946777-2.7719727-5.7215576-5.6630859-5.7246704
				c-2.4035645-0.0025635-4.3806152,2.1343994-5.013916,4.4528198c-0.3413086,1.2490234-0.3779297,2.5391846-0.2807617,3.8339844
				c-0.5039062-1.5480347-1.4379883-2.8971558-2.9008789-3.5602417c-2.1486816-0.973999-5.1384277,0.7053223-5.2666016,2.8393555
				c-0.3017578-1.9193115-0.8237305-3.8712158-2.3276367-5.0343018c-1.7580566-1.3596802-5.1367188-0.3148193-4.8806152,1.8928833
				c-0.4794922-2.7541504-3.8674316-3.5481873-5.6881104-3.5861206s-4.1345215,0.4172516-5.8179932,3.6690063
				c-3.3034668-4.4238281-12.0126953-2.6928101-13.1137695,2.692688c-2.8032227-5.7700806-12.5134277-6.4434204-16.2175293-1.25
				c-0.1999512-3.4622192-1.0012207-7.4052734-4.0043945-9.4251099c-2.9030762-1.9232788-8.0085449,0-7.8081055,3.1741333
				c-0.6008301-4.7127075-1.8022461-9.3289185-3.7041016-13.656311c-0.4003906-0.8657227-0.8007812-1.8273926-1.6015625-2.4042969
				c-1.7019043-1.1539917-4.3049316-0.1923218-5.4060059,1.5385742c-1.1010742,1.7312012-1.2009277,3.8469238-1.3010254,5.8666992
				c0-5.6743164-1.6020508-11.2521973-4.6052246-16.1566772c-1.1010742-1.8273926-3.4033203-3.6546021-5.1054688-2.3081055
				c-0.7004395,0.5770874-0.9008789,1.5388184-1.1010742,2.4039917c-0.4003906,2.5969238-0.901123,5.097168-1.3015137,7.6936035
				c-0.1000977-5.7700195-2.3024902-11.4440918-6.0063477-15.8679199c-1.9018555-2.2116699-5.5058594-4.1350098-7.5080566-2.0194702
				c-0.7006836,0.7692871-0.9008789,1.7312012-1.1013184,2.6928101c-1.0009766,5.0007935-1.5014648,10.0979004-1.6013184,15.1945801
				c-4.3049316-0.6730957-8.2089844,3.2700195-8.9099121,7.4052734c-0.0998535,0.5772095-0.0998535,1.0579224-0.1999512,1.6350098
				c-0.1000977,3.2695312,0.9008789,6.635498,2.1022949,9.8093262c-1.6015625-3.0773926-6.3068848-4.0390015-9.7104492-2.4042969
				c-3.5036621,1.8272095-5.4055176,5.6738892-6.1064453,9.5205078c-2.9030762-4.904541-11.0119629-5.8662109-15.1162109-1.8269043
				c-0.2001953-0.6730957-0.300293-1.442627-0.4006348-2.1157227c0-2.1157227,0.6008301-4.4240723,1.2016602-6.5394897
				c0.4003906-1.442688,0.6003418-2.9815063,0.6003418-4.5200195c0-1.5388794-0.4003906-2.9812012-1.3015137-4.135498
				c-1.6015625-2.0195923-5.4057617-2.1154785-6.7070312-0.2885742c0-0.0960083,0-0.2883911,0-0.3845215
				c0-2.4041138-3.7038574-4.7124023-6.4067383-3.6546021c-3.3034668,1.3464966-4.8051758,5.0009766-5.90625,8.2709961
				c-0.2001953-2.7890015-0.4003906-5.6743164-2.1025391-7.8861694c-1.6015625-2.2119141-5.2053223-3.4622192-7.4077148-1.6348267
				c-0.9008789,0.7692871-1.501709,1.8272095-1.9018555,2.9812012c-1.3017578,3.4619141-2.0024414,7.1165161-2.0024414,10.8674316
				c0-4.3276367-6.6069336-6.2512207-10.4111328-3.8469238s-5.3056641,6.9240723-6.5070801,11.1555176
				c0.1000977-3.8466187-3.5036621-7.5012207-7.5080566-7.5971069c-4.0041504-0.0964966-7.8081055,3.4619141-7.8081055,7.3085938
				c-0.4003906-1.1541138-0.5007324-2.211731-0.5007324-3.3657837c0-1.9235229,0.2001953-3.8469238,0.2001953-5.7702026
				c0,0,0,0,0-0.0960083c0-3.0776367-0.901123-6.5397949-3.8041992-7.9824219
				c-1.963623-0.980896-4.7209473-0.0048828-5.7722168,1.6210938c-0.4526367-2.6989746-2.9140625-6.121582-7.0410156-6.3331909
				c-5.5102539-0.2827759-6.4072266,8.3666992-7.9086914,11.251709c-1.1010742-3.5581055-6.3068848-4.5197754-9.5102539-2.692688
				c-3.3034668,1.9234009-4.8051758,5.6738892-5.4057617,9.3283691c-0.6005859,3.654541-0.5007324,7.3091431-1.501709,10.8671875
				c-1.3012695-3.5580444-17.1628418-9.6132812-29.7316895,0.0964355h-0.5007324
				c-0.5004883-3.4620972-1.802002-6.9244995-3.8039551-9.8095093c-0.6005859-0.8654785-1.2011719-1.6350708-2.1022949-2.1157837
				c-1.7016602-0.9616089-3.4035645-0.2885132-4.8049316,1.0578613c-0.2001953,0.1924438-0.3005371,0.2886353-0.5007324,0.4810181
				l0.4003906-4.9047852c-1.8017578-2.1157837-5.7060547-1.7310181-7.3076172,0
				c-0.2004395,0.1923828-0.4006348,0.480896-0.5004883,0.6730957c0.2001953-3.6541138,0-7.5009766-2.703125-10.001709
				c-2.2019043-2.1154785-6.4067383-1.6347656-8.2084961,0.2888184c-0.4008789,0.3844604-0.7009277,0.8651733-0.9013672,1.3461914
				c-0.6003418-3.8466797-4.2041016-7.3088989-8.4089355-7.3088989c-2.1022949,0-4.1044922,0.8654785-5.605957,2.3081055
				c-1.8017578,1.6347656-3.0031738,4.0390625-2.8027344,6.4433594c-0.901123-1.5385742-3.7043457-1.3463745-5.0056152,0
				c-0.1000977,0.0962524-0.2004395,0.1921387-0.3000488,0.3848267c-4.9055176,6.4432983-2.3027344,13.944519-0.3005371,18.7531128
				c-2.0021973-2.9813843-6.2062988-4.5202026-9.7102051-3.0776367c-1.6018066,0.5771484-2.8032227,1.7312012-3.6040039,3.0776367
				c-0.5004883,0.7692871-0.9006348,1.6350098-1.1010742,2.5964966h-1.6018066
				c-1.9020996-3.3657837-4.2043457-6.4434204-7.6079102-8.3666992c-4.7050781-2.6929321-11.7126465-2.2119141-14.6154785,2.3081055
				c1.4013672-5.9627075,2.8027344-12.4058228,0-17.8876953c-2.8034668-5.4816895-11.6125488-8.270813-15.5166016-3.4624023
				c0.4001465-5.7700195-0.5004883-13.3674927-6.4067383-14.6174927c-3.6040039-0.7697144-7.3083496,1.6345825-9.0097656,4.8083496
				c-0.4008789,0.7693481-0.8012695,1.6348267-1.1013184,2.5005493c-0.8010254,2.5004883-1.1013184,5.0968628-1.201416,7.7897949
				c-2.6030273-3.4622192-5.906311-6.7319946-10.2107544-7.5977173c-3.7041016-0.6730957-7.9089355,1.442627-9.0095215,4.6162109
				c-0.2004395,0.4810181-0.3007812,1.0578613-0.3007812,1.6350098c-1.4013672-3.9428101-0.7004395-8.1744995-0.5004883-12.4060059
				c0.2004395-4.3276367-0.3000488-9.1359253-3.7036133-11.9249878c-3.2036133-2.5967407-9.3103027-1.5386353-10.2111816,2.1156616
				c0,0.0961914-0.1000977,0.0961914-0.1000977,0.1923828c0.4001465-6.4433594,0.8010254-12.9828491-0.8007812-19.2339478
				c-0.9006348-3.4624023-2.8032227-7.1166992-6.4064941-8.0783691c-2.5029297-0.6733398-5.40625,1.3465576-6.1069336,3.4621582
				c-0.2001953,0.3848877-0.2001953,0.8656006-0.2001953,1.25c-1.501709-3.0771484-1.501709-6.635498-2.5026855-9.9052734
				c-1.2009277-3.7506104-5.2053223-7.4052734-8.8093262-5.7701416c-1.5014648,0.6730957-2.5026855,2.1157227-3.3037109,3.4620361
				c-1.501709,2.5003662-2.7026367,5.0969238-3.6035156,7.7896729c-0.9013672,2.5004883-1.6018066,5.1932373-2.0021973,7.789917
				c-1.0012207-7.789917-6.7072754-15.098877-14.5153809-17.6953125c-1.8022461,2.4044189-3.2036133,5.0007324-4.204834,7.7895508
				c-1.0009766,2.5004883-1.6018066,5.1933594-1.8017578,7.8859863c-1.4018555-3.0773926-6.7072754-2.3081055-8.4094238,0.5772705
				c-0.3000488,0.3843994-0.5004883,0.8654785-0.6000977,1.3461914c-1.1013184,2.692749-0.6008301,5.9625244,0.0996094,8.9437256
				c1.1013184,5.0008545,2.1025391,10.0979614,3.3039551,15.0987549c-3.1035156-4.2312012-9.9104004-5.6738892-14.515625-2.7888794
				c-2.1022949,1.2503052-3.5036621,3.3659668-4.2045898,5.5778809c-0.9008789,2.7888184-0.8007812,5.8662109,0.7009277,8.3666992
				c-3.3039551-1.730896-7.7084961-1.1538086-10.4111328,1.3464355c-1.1013184,0.9616699-1.8022461,2.2119751-2.2026367,3.5585938
				c-0.6005859,1.8269043-0.7006836,3.942688,0,5.7700806c-1.9018555-1.9234009-5.9060059-1.5388794-7.9082031,0.5769043
				c-0.9008789,0.9616089-1.5014648,2.1157227-1.9018555,3.2700195c-0.6008301,1.5385742-0.8012695,3.3659668-0.9013672,5.0966797
				c-0.1999512-3.6541138-0.8007812-7.5974121-3.7038574-9.9052734c-2.7028809-2.2119141-7.8085938-0.961731-8.6091309,1.9232788
				c0.1000977-5.385498,0.2004395-10.7711792,0.3000488-16.1564941c0.1003418-3.2700195-0.8005371-7.5014038-4.1040039-7.7900391
				c-2.5026855-0.1920776-4.0041504,2.0198364-4.8054199,4.5200195c-0.3000488,0.7695312-0.5004883,1.5388184-0.6005859,2.2119141
				c-0.7006836-6.3471069-2.0021973-12.6943359-3.9042969-18.8491821c-0.7001953-2.3081055-2.8027344-5.1932373-5.0053711-4.0393066
				c-1.0009766,0.4810791-1.4013672,1.5388184-1.8017578,2.5004883c-1.2011719,3.2698975-2.5024414,6.6358032-3.7041016,9.9055786
				c-0.6005859-2.5004883-1.2009277-5.1932983-3.1032715-7.0205078c-1.9020996-1.8270874-5.4057617-2.3079224-7.1071777-0.288269
				c-0.4008789,0.4807129-0.6008301,1.0578003-0.8012695,1.6347046c-0.1999512,0.5772095-0.4003906,1.1541138-0.5004883,1.8273926
				c-0.6008301,2.9810181-1.1013184,6.0585938-1.6018066,9.0397949c-1.1008301-1.442627-3.8039551-1.1539917-5.1052246,0.0961914
				c-0.6005859,0.5769043-0.9013672,1.2503052-1.201416,2.0195312c-0.4001465,1.0578613-0.6005859,2.3083496-0.7009277,3.5585938
				c-0.4003906,5.4816895,0,10.8670044,1.2016602,16.156311c-2.5026855-1.25-5.8061523,0.1925659-7.3078613,2.5004883
				c-0.4006348,0.6730957-0.7009277,1.3463745-1.0009766,2.0197754c-0.6008301,1.730896-0.8010254,3.5581055-0.9013672,5.4816284
				c-0.7004395-4.2316284-8.6086426-5.2893066-10.0107422-0.9616089c-0.4001465-3.9431152-0.9008789-8.0786133-3.4035645-11.1560059
				c-2.5024414-3.0773926-7.9082031-4.423584-10.7109375-1.5383911c1.6010742-4.7126465,3.1027832-10.0981445,0.8005371-14.5219116
				c-2.3022461-4.4238892-10.4111328-5.6738892-12.2131348-1.0581055
				c0.4006348-5.8662109-1.1010742-11.9248047-4.3044434-17.0219727c-0.8007812-1.2503662-1.7021484-2.5003662-3.2036133-2.9810791
				c-3.4035645-1.1542969-6.0065918,2.4042969-7.2075195,5.9624634c-0.3005371,0.7692871-0.5004883,1.442688-0.6008301,2.2119141
				c-2.8027344-2.3081055-7.4077148,0-8.9091797,3.2697754c-0.1003418,0.2883911-0.2006836,0.4807129-0.3007812,0.7692871
				c0,0.0961914-0.0996094,0.1923828-0.0996094,0.2886353c-3.8044434-1.2503052-8.609375-0.0962524-9.5102539,3.173584
				c-0.1000977,0.3847046-0.2004395,0.7692871-0.2004395,1.2501831c-1.5014648-3.65448-6.0065918-5.7702637-9.9104004-4.8085938
				c-2.8032227,0.6730957-5.0053711,2.9815063-5.90625,5.5778809c-0.4008789,1.0579224-0.6008301,2.1157227-0.5004883,3.173645
				c-1.6020508-3.4622192-4.4052734-6.347229-7.8085938-8.2705078c-2.2021484,1.5385742-3.9042969,3.7504883-4.8051758,6.2509766
				c-0.3005371,0.6730347-0.5004883,1.442627-0.6005859,2.1157227c-3.1035156-6.2510376-14.3151855-4.8085938-16.9179688,1.0578003
				c1.4013672-6.828125-0.1003418-14.6176147-5.90625-18.5608521c-5.6062012-3.8469238-15.2165527-1.0576172-17.0183105,4.8086548
				c-0.2004395,0.4807739-0.3005371,1.0578613-0.4008789,1.6347656c-0.7004395-5.0968628-5.5056152-9.3285522-10.8112793-9.6168823
				c-4.9050293-0.2884521-9.8103027,2.9812012-11.512207,7.3087769c1.4013672-6.0586548-0.2004395-13.0791626-5.6062012-16.348938
				c-4.8049316-2.8850098-12.0126953-0.2885742-14.1152344,4.135498c-0.5004883-4.0393066-3.6032715-7.8859863-7.8081055-8.751709
				c-5.0053711-1.0577393-10.4108887,2.1157227-12.0129395,6.7319336c-0.2001953,0.480835-0.3000488,0.8658447-0.4001465,1.3465576
				c0.7004395-7.8861084,0.9008789-16.7337646-4.9052734-22.2154541c-4.7050781-4.5196533-14.215332-2.692749-16.7180176,2.2120361
				c-0.4003906-6.6358643-5.4057617-12.9829102-12.2133789-13.5601807c-5.2050781-0.3843994-9.8100586,3.654541-11.3117676,8.270874
				c-0.8005371,2.4042969-0.8005371,4.9044189,0.5007324,7.0205078c-3.4038086-2.8850098-7.0075684-3.9432373-11.4121094-1.6350098
				c-1.3017578,0.6732178-2.0024414,1.5388184-2.4025879,2.5965576c-1.201416,2.7889404,0.7004395,6.5396729,1.9018555,9.3286133
				c-3.4035645,0.7692871-5.90625,3.4620361-7.107666,6.635498c-1.0009766,2.5965576-1.1013184,5.5778809,0.2004395,8.0783691
				c-6.3071289-6.2509766-19.7211914-3.2697754-22.4243164,5.1931763c-0.0998535,0.1923828-0.0998535,0.3845825-0.1999512,0.6730957
				c1.0009766-5.7700806-2.9030762-11.9248657-8.609375-13.7522583c-5.8061523-1.8270264-12.7138672,1.1541748-15.4162598,6.3474121
				c0.1000977-0.2888184,0.1999512-0.480835,0.3000488-0.7695312c1.8022461-5.2894287-1.8017578-11.732666-7.4076843-13.175293
				c-5.2058105-1.2501221-11.2124023,2.1157227-12.9138184,7.0205078c-0.2004395,0.3845215-0.3005371,0.8653564-0.4003906,1.2503662
				c0.7004395-7.7897949,0.1999512-15.9644775-6.9077148-18.560791c-5.6057129-2.1157227-10.2106934,3.6542969-12.2126465,9.7128906
				c-0.5004883,1.5388184-0.9008789,3.1737061-1.1015625,4.7124023c-0.6005859-5.8665771-6.6069336-10.6748047-12.713623-10.0977783
				c-4.6044922,0.3845215-8.6088867,4.0391846-9.9104004,8.3666992c-0.1999512,0.5772705-0.300293,1.1541748-0.4003906,1.7310791
				c-1.2888184-4.1912842-8.1723633-6.6757812-12.388916-3.8260498c-0.7207031-1.9825439-1.6425781-3.8780518-2.8417969-5.6350098
				c-0.9467773-1.3867188-2.6062012-2.802124-4.1149902-2.0654297c-0.7971191,0.3892822-1.2194824,1.2593994-1.5817871,2.0689697
				c-1.6816406,3.7596436-3.3046875,7.5457764-4.8684082,11.355835c1.0444336-3.9730225-3.1152344-8.2781982-7.1359863-7.4362793
				c-3.5070801,0.7346191-5.5568848,5.0218506-4.4460449,8.3282471c-2.8129883-4.1784668-10.8598633-3.9437256-12.7617188,1.0300293
				c0.5415039-3.0327148-1.2424316-6.3233643-4.0793457-7.5244141c-2.8369141-1.2012939-6.4411621-0.1922607-8.2419434,2.3076172
				c-0.2602539-3.2000732-3.1762695-5.9619141-6.3857422-6.0479736c-3.2089844-0.0860596-6.269043,2.5157471-6.7001953,5.6967773
				c-0.6218262-3.0194092-2.878418-5.9650879-5.9472656-6.2548828c-2.7502441-0.2600098-5.4567871,2.6105957-4.8549805,5.1149902
				c-2.0356445-3.9432373-9.3481445-3.9127197-10.9230957,0.4683838c1.0439453-3.248291,0.8693848-8.0196533-2.5490723-10.013916
				s-6.2983398-0.2749023-7.0725098,2.0550537c0.7316895-4.1922607,1.4365234-8.6564941-0.2062988-12.5820312
				c-1.6430664-3.925415-6.6157227-6.7597656-10.2807617-4.597168c0.9008789-7.9667969-0.9909668-21.3054276-7.7470703-21.9111404
				c-6.7561035-0.605835-7.559082,8.8168945-8.1623535,14.4824295c-0.7905273-3.9598465-4.901123-6.9541092-8.9125977-6.4918289
				c-3.5895996,0.413208-6.6188965,3.5408936-7.1247559,7.085701c0.1982422-5.3172684-1.4589844-10.9278641-6.3500977-11.1245193
				c-5.2807617-0.2127686-8.4897461,11.6919022-7.3642578,18.6036453c-1.9782715-3.7003174-5.5524902-8.1125488-9.5483398-5.1052246
				c-3.9956055,3.0073242-3.4760742,13.800293-3.7133789,18.9622803c0.1503906-3.0926514-4.0683594-4.9344482-6.8232422-3.520874
				c-2.7548828,1.4136963-3.9853516,4.7329102-4.2062988,7.8212891c-0.9675293-4.2012939-0.8879395-10.3881836-6.8293457-10.6875
				c-5.9414062-0.2991943-10.9279785,9.1953125-11.1848145,19.7646484
				c-1.2219238-6.6501465-11.8833008-8.6900635-15.4743652-2.9609375c1.168457-2.0072021,1.8273926-5.4996338-1.8327637-6.7728271
				c-3.6599121-1.2731934-5.0383301-0.3743896-6.701416,2.4957275c1.6806641-5.8153076-6.4516602-10.475708-12.0600586-8.1975098
				c-5.6083984,2.2786865-8.654541,8.223999-11.2270508,13.7036133c-0.2949219-2.5040283-0.3581543-6.6639404-2.9077148-6.8742676
				c-4.628418-0.3818359-7.217041,6.0905762-9.0681152,10.3759766c0.3688965-2.9016113,0.666748-6.1119385-1.0197754-8.5018311
				s-6.1906738-2.6480713-7.0661621,0.1429443c1.3894043-7.0184326-8.001709-12.3574219-14.6374512-9.682251
				c-2.3828125,0.9603271-4.3562012,2.5253906-5.987793,4.4515381c1.5888672-8.2523193-0.2556152-19.7749023-8.3925781-21.3920898
				c-6.5068359-1.2501221-7.9082031,8.559082-9.3100586,14.0410156c-0.3666992-5.1108398-3.3430176-9.8935547-7.5341797-12.9526367
				v0.2399902c-1.5292969-3.3947754-7.0964355-3.1019287-9.2653809-0.0510254
				c-2.1813965,3.0683594-1.5742188,7.3723145,0.0908203,10.7487793c-3.3447266-3.4356689-9.8686523-1.1181641-11.6608887,3.3291016
				c-1.7924805,4.4472656,0.0493164,9.6223145,3.0178223,13.3878174c-3.0131836-2.2115479-7.6071777,0.3221436-8.8435059,3.8493652
				c-1.2368164,3.5272217-0.1887207,7.4005127,0.8623047,10.9874268c-3.2814941-4.2064209-11.8007812-12.4387207-16.2685547-8.40625
				s-2.7709961,11.7887573-1.5380859,15.6987305c-2.0114746-2.6505127-5.9238281-3.651001-8.9609375-2.2913818
				c-1.6291504,0.7294922-2.9143066,2.1018677-3.6621094,3.7194214c0.2353516-3.8369141-0.4042969-7.6311646-3.4807129-9.6050415
				c-4.0700684-2.6118164-9.8393555,0.3249512-11.9501953,4.6760254c-1.8828125,3.8810425-1.6950684,8.3626709-1.2507324,12.6964111
				c-0.6640625-1.3237305-2.5541992-2.1777344-4.0671387-1.6464233c-2.057373,0.7224121-3.1904297,2.958313-3.6008301,5.0997314
				c-0.7915039,4.1292725,0.3359375,8.3578491,1.4545898,12.4107056c-3.2878418-0.6672974-6.9145508,0.9626465-8.5983887,3.8643188
				c-1.684082,2.9017334-1.2998047,6.859314,0.9108887,9.3829346c-2.8244629-0.9052734-5.8774414-1.6038818-8.7294922-0.7903442
				c-1.230957,0.3511353-2.390625,1.074707-3.2702637,2.0169678c0.6672363-2.3673706,1.1516113-4.7861328,1.392334-7.2338867
				c0.1772461-1.8022461,0.0678711-3.9643555-1.4584961-4.9385986c-2.154541-1.374939-4.8125,0.8601685-6.1293945,3.0505371
				c-2.6740723,4.4480591-4.0864258,9.6455078-4.0307617,14.8352051c0.0195312-2.7723389-0.4116211-6.2285767-3.0270996-7.1484375
				c-2.5722656-0.9046631-5.1994629,1.6154785-5.9040527,4.2498169c-0.7045898,2.6342773-0.2580566,5.4520874-0.7890625,8.12677
				c0.1340332-3.0054321,0.0339355-6.1393433-1.32129-8.8252563s-4.2773438-4.7883911-7.248291-4.3154297
				c-3.7148433,0.5913086-5.8493652,4.9273071-5.3935547,8.661377c0.4558105,3.7340088,2.7548831,6.9480591,4.9799805,9.9812622
				c-2.4992671-0.9238281-5.5686035,0.0640259-7.059814,2.2721558c-1.4914551,2.2080688-1.5698242,5.4821167,0.9248047,7.8009644
				l1407.4135742-0.0341187v0.0341187H1551.8608398z"/>
		</g>
	</g>
</g>
</svg>
