<svg xmlns="http://www.w3.org/2000/svg" width="507.432" height="323.883" viewBox="0 0 507.4320679 323.8831787">
  <style>
    .st0{opacity:0.5;} .st1{fill:#587567;} .st2{fill:#0A090A;} .st3{fill:#667D89;} .st4{fill:#526471;} .st5{fill:#E5BDA2;} .st6{fill:#C6A28B;} .st7{opacity:0.44;} .st8{fill:#F2DB7A;} .st9{opacity:0.27;fill:#F2DB7A;} .st10{fill:#F0F1F0;} .st11{fill:#586682;} .st12{fill:#E8E5D5;} .st13{fill:#CCC9B7;} .st14{fill:#FFFFFF;} .st15{fill:#DEDEDD;} .st16{fill:#282926;} .st17{fill:#222222;} .st18{fill:#050006;} .st19{fill:#DCA49F;} .st20{opacity:0.35;fill:#F2DB7A;} .st21{opacity:0.35;} .st22{fill:#DB927E;} .st23{fill:#BC7767;} .st24{fill:#E5A899;} .st25{fill:#745F41;} .st26{fill:#6B593B;} .st27{fill:#AF8F7E;} .st28{fill:#9D5E57;} .st29{fill:#C58475;} .st30{fill:#D19A8F;} .st31{fill:#AB6B5E;} .st32{fill:#B3B3B3;} .st33{fill:#9D6A60;} .st34{fill:#A7746E;} .st35{fill:#8A5B55;} .st36{fill:#9B6A66;} .st37{fill:#F1E6BA;} .st38{fill:#DACFA6;} .st39{fill:#F6F1E3;} .st40{fill:#D9D4C8;} .st41{fill:#CF7D91;} .st42{fill:#2C2C2C;} .st43{fill:#73AC89;} .st44{fill:#669777;} .st45{fill:#EBBD6A;} .st46{fill:#D1A45E;} .st47{opacity:0.14;} .st48{fill:#E8CC3F;} .st49{fill:#7B703D;} .st50{fill:#A8A69D;} .st51{fill:#99978F;} .st52{opacity:0.25;fill:#565550;} .st53{fill:#CFB137;}

    #Capa_2 {
      animation: popup 2.5s ease infinite;
    }

    @keyframes popup {
      0% {
        transform: translate(0, 0px);
      }
      50% {
        transform: translate(0, 20px);
      }
      100% {
        transform: translate(0, 0px);
      }
    }

  </style>
  <g id="Capa_1">
    <path class="st0 st1" d="M136.37 312.195c42.727 6.28 197.787 2.946 182.134-20.195-14.417-21.313 189.593-14.634 188.926-27.897-1.333-18.013-192.895-13.09-280.366-7.625 0 0-87.955 7.507-102.213 11.996-14.256 4.49-7.976 25.342-14.882 38.6"/>
    <path class="st0 st1" d="M343.544 302.452c16.052 4.522 87.422 6.11 129.607-4.228 1.63-.4 3.575-1.17 3.75-2.837.182-1.72-1.672-2.88-3.277-3.52-8.033-3.197-16.685-4.483-25.275-5.47-20.916-2.4-120.75-2.11-105.195 15.58"/>
    <path class="st2" d="M209.918 258.59c-1.394 2.902-2.296 7.247-1.953 10.447.028.262.07.54.24.74.22.26.59.318.927.358 15.956 1.928 32.15 1.885 48.096-.127-.037-3.845-.563-7.686-1.562-11.4-14.43-1.39-29.155-2.765-43.294.438M308.432 258.678c-1.344 2.925-2.17 7.285-1.772 10.48.032.26.078.538.253.735.225.255.595.307.933.342 15.987 1.65 32.177 1.707 48.086-.58-.104-3.845-.696-8.053-1.76-11.75-14.45-1.14-29.197-2.26-43.278 1.186"/>
    <path class="st3" d="M280.717 99.618l-.46-1.115c-17.074-.94-23.27 6.058-37.92 14.507-17.904 10.322-37.33 67.63-39.035 87.43-3.14 12.903-2.68 39.104-3.187 52.342-.063 1.65-.09 3.38.687 4.853 1.165 2.21 3.733 3.524 6.255 4.047 79.344 16.472 135.69 4.534 149.544-5.613 1.67-1.222 3.342-2.574 4.207-4.406.66-1.4.795-2.97.903-4.505 2.11-29.937-6.263-39.733-16.174-68.196l-29.073-60.56-35.746-18.786z"/>
    <path class="st3" d="M297.045 269.478c3.53-19.218 6.025-38.626 7.444-58.114.09-1.24.162-2.55-.4-3.657-1.066-2.105-3.825-2.55-6.18-2.724-19.417-1.436-38.9-1.978-58.368-1.625l-10.437 7.228c-2.305 19.29-2.837 35.427-1.59 54.813 25.91 4.435 52.807 4.906 69.53 4.078z"/>
    <path class="st4" d="M361.967 242.207c.01-.25.017-.5.024-.745.018-.635.03-1.26.037-1.877.002-.14.006-.287.007-.427.006-.744.003-1.474-.006-2.193-.003-.202-.008-.4-.012-.6-.01-.522-.024-1.04-.04-1.55l-.03-.712c-.02-.502-.045-.997-.074-1.488-.012-.193-.02-.39-.034-.58-.043-.658-.092-1.307-.148-1.946-.013-.156-.03-.307-.044-.46-.047-.495-.096-.985-.15-1.468-.025-.223-.052-.445-.078-.666-.052-.427-.107-.85-.164-1.27-.028-.208-.056-.416-.086-.622-.08-.564-.167-1.122-.26-1.674l-.052-.307c-.09-.524-.185-1.043-.284-1.558-.04-.206-.08-.41-.122-.615-.078-.387-.158-.772-.24-1.155-.047-.21-.092-.42-.14-.628-.096-.432-.197-.86-.3-1.29-.034-.135-.065-.274-.1-.41-.135-.55-.277-1.094-.423-1.637l-.15-.544c-.105-.38-.213-.762-.323-1.14l-.18-.614c-.114-.384-.23-.767-.35-1.15-.052-.17-.104-.34-.158-.51-.17-.538-.343-1.074-.522-1.61-.046-.14-.095-.28-.142-.42-.14-.415-.282-.83-.427-1.246l-.206-.587c-.136-.385-.274-.77-.414-1.156l-.193-.532c-.2-.548-.404-1.098-.612-1.652l-.048-.13c-.198-.525-.4-1.054-.606-1.587l-.217-.562c-.16-.406-.318-.815-.48-1.226l-.222-.57-.578-1.465-.114-.29-.76-1.908c-2.146-5.393-4.53-11.346-7.01-18.468l-29.073-60.56-1.354-.71-12.45 6.108c-.145-.093-.287-.188-.434-.277-.12-.074-.24-.15-.364-.22-.32-.184-.643-.36-.973-.525-.146-.073-.293-.137-.44-.206-.21-.097-.42-.193-.633-.283-.18-.075-.36-.15-.543-.22-.19-.073-.384-.14-.578-.207-.336-.117-.674-.223-1.016-.32-.155-.044-.31-.09-.466-.13-.232-.057-.463-.11-.696-.16-.13-.026-.26-.05-.392-.074-.533-.1-1.066-.177-1.6-.223-.013 0-.024-.003-.036-.004-.257-.022-.512-.032-.77-.04-.113-.005-.227-.007-.34-.008-2.407-.027-4.76.513-6.784 1.79-.175-.112-.36-.198-.54-.298-1.737-.962-3.687-1.418-5.687-1.474-11.226-3.75-23.756-3.02-34.844 1.17l-7.334.43c-5.85 6.663-8.013 15.887-8.047 24.753-.034 8.866 1.84 17.61 3.1 26.387 1.32 9.2 2.502 19.523 9.712 25.387 2.844 2.312 6.354 3.637 9.952 4.42-.687 1.47-.978 3.187-1.16 4.82-.213 1.916-.34 3.84-.394 5.767-3.905 6.217-6.244 13.41-6.71 20.74l1.377.083c5.993-5.237 10.93-11.677 14.446-18.816l2.295-.18c-.758 14.17-2.623 28.304-4.523 42.397l-.18 1.324c8.652-8.285 12.52-25.406 13.87-44.435l5.39-.422c.987-.118 1.974-.247 2.96-.378-.634 1.073-.972 2.326-1.022 3.577-.068 1.712.29 3.453 1.053 4.987 1.398 2.812 4.754 4.308 5.75 4.596 1.106.32 2.28.307 3.43.26-.96-1.44-.767-3.522.407-4.786-.017.55-.036 1.103-.055 1.654-.962 15.196-5.753 30.922-11.327 45.13 2.368.028 10.29.065 12.49.047v-.126c1.045-.03 2.08-.065 3.107-.105l.09-.004c1.005-.038 1.998-.083 2.983-.132l.147-.007c.975-.05 1.94-.103 2.895-.16.052-.004.103-.008.154-.01.954-.06 1.897-.123 2.83-.19l.147-.012c.936-.068 1.86-.14 2.776-.218l.126-.01c.925-.08 1.84-.16 2.743-.248l.063-.006c10.218-.984 19.074-2.493 26.4-4.278.037-.01.076-.018.113-.027.574-.14 1.135-.282 1.69-.425l.34-.088c.503-.132.995-.265 1.483-.4.153-.042.31-.083.46-.126.45-.124.886-.25 1.32-.378l.55-.16c.4-.12.794-.242 1.183-.364l.6-.188c.363-.116.72-.233 1.07-.35.212-.07.422-.14.63-.212.33-.112.653-.225.973-.338l.636-.23c.302-.11.6-.22.89-.33.217-.083.43-.165.64-.248.272-.106.542-.212.804-.32.218-.088.43-.176.642-.265.244-.103.487-.205.723-.308.216-.095.424-.19.633-.283.22-.1.44-.198.65-.298.213-.1.415-.2.62-.298.193-.095.39-.19.577-.285.21-.105.407-.21.608-.317.168-.09.34-.178.503-.268.207-.114.402-.228.6-.342.14-.08.286-.162.42-.243.217-.13.418-.258.62-.387.104-.066.214-.132.314-.198.295-.195.577-.39.84-.583.21-.154.418-.308.625-.466.208-.157.413-.317.615-.48.81-.655 1.57-1.364 2.18-2.17.304-.404.57-.832.787-1.29.66-1.4.795-2.97.903-4.505.06-.85.11-1.678.152-2.495.013-.243.023-.48.034-.72.028-.587.052-1.167.07-1.738z"/>
    <path class="st5" d="M431.937 134.99c10.052-1.2 20.026-3.05 29.84-5.534.607-5.795-6.063-6.718-6.063-6.718-1.17-3.96-11.573-4.792-17.552-4.915-8.415-.172-16.263-.235-24.388 1.965-1.364.37-2.748.824-3.834 1.728-2.015 1.678-2.58 4.504-2.87 7.11-.314 2.817.507 4.928.537 7.762"/>
    <path class="st6" d="M439.342 133.164c-8.78.843-17.59 1.687-26.406 1.38-.98-.032-1.958-.09-2.937-.155.226-4.065 1.746-8.115 4.843-10.7 1.746-1.457 3.876-2.37 6.02-3.13.635-.225 1.277-.436 1.92-.637 6.528-.71 13.784-.85 19.64-.398 1.76.136 9.072.1 10.66.87 1.56.76 2.393 2.112 1.854 3.716-3.932.532-13.365 1.54-17.225 2.455 6.837-.28 15.195-1.87 21.58-.398.87.463 1.676 1.057 2.34 1.767-1.454-5.308-5.56-6.044-5.56-6.044-.54-3.78-11.93-3.944-17.91-4.067-4.362-.09-8.76-.17-13.117.075l-.28.016c-.727.044-1.453.095-2.177.158l-.084.007c-.724.064-1.446.142-2.167.23-.144.017-.288.036-.432.055-.686.088-1.37.186-2.052.3-.037.005-.076.01-.113.017-.698.117-1.393.252-2.086.398-.166.035-.33.07-.496.108-.698.155-1.395.32-2.088.507-.11.03-.223.066-.335.098v-.005c-7.325.55-15.254 0-23.74-.84l-5.744.948c1.19 7.462 1.614 15.045 1.27 22.592 7.378-1.09 14.653-2.88 21.693-5.343.162-.057.324-.118.483-.183l25.24-1.97c7.335-.877 14.625-2.108 21.844-3.67-1.926.175-3.844.542-5.758.84-2.88.445-5.78.723-8.68 1.002z"/>
    <path class="st7 st8" d="M419.208 121.188c.546-.224 1.1-.43 1.654-.627.636-.225 1.278-.436 1.922-.637 6.527-.71 13.783-.85 19.64-.398 1.76.136 9.07.1 10.658.87 1.562.758 2.394 2.112 1.855 3.716l4.354 2.057c.87.463 1.855 1.66 2.52 2.372-.305-5.403-5.738-6.65-5.738-6.65-.54-3.78-11.93-3.944-17.91-4.066-4.362-.09-8.76-.172-13.117.073l-.28.017c-.727.044-1.453.095-2.177.158l-.084.007c-.724.064-1.446.142-2.167.23-.144.017-.288.036-.432.055-.686.088-1.37.186-2.052.3-.037.005-.075.01-.113.017-.698.117-1.393.252-2.086.398-.166.035-.33.07-.496.108-.698.155-1.395.32-2.088.507-.11.03-.223.066-.335.098v-.005c-7.325.55-15.254 0-23.74-.84l-5.744.948c.296 1.848.542 3.704.743 5.565 24.187.467 35.215-4.272 35.215-4.272z"/>
    <path class="st4" d="M315.964 114.32c24.416-.49 48.872 1.06 73.03 4.63 2.208 24.08-.08 48.568-6.714 71.823-.53 1.864-1.13 3.792-2.46 5.203-1.335 1.417-3.238 2.132-5.09 2.736-10.12 3.3-20.877 4.645-31.5 3.936"/>
    <path class="st9" d="M342.28 114.582s31.69 1.35 46.714 4.367l.488 6.53s-36.584-7.687-52.964-8.21"/>
    <path class="st4" d="M250.588 196.857l-2.375.44c-7.112 4.163-2.503 24.466-3.18 36.86-.037.643-.12 1.353-.6 1.783-.425.382-1.044.433-1.616.453-16.95.59-33.697-10.404-39.9-26.19-1.475-3.758-2.392-7.708-3.304-11.64-1.934-8.344-3.863-17.116-1.543-25.36 1.468-5.218 4.54-25.238 7.567-29.737 8.177-12.156 13.518-18.18 24.53-21.045l15.818 9.942s-14.022 46.505 5.288 63.747"/>
    <path class="st3" d="M241.727 96.77l-9.167 19.423c-.133.154-2.285-1.06-2.415-.905-9.864 11.666-14.59 42.757-15.686 57.995-1.096 15.237 2.454 30.71 9.65 44.187 2.267 4.25 4.91 8.336 8.252 11.807 2.726 2.832 5.9 5.197 9.336 7.112l-.067.003c-16.948.59-43.71-16.31-44.62-20.244-1.452-6.258-11.207-54.682 19.784-107.765 6.9-11.82 11.875-4.455 24.933-11.615z"/>
    <path class="st10" d="M275.512 117.105c-2.15-.49-4.332-.812-6.527-.98.872 7.654 7.364 13.603 15.253 13.603 7.903 0 14.406-5.97 15.26-13.647-4.353-.27-8.736.053-12.988 1.025h-10.998z"/>
    <path class="st5" d="M346.43 77.664c-1.338 0-2.908.172-4.6.494-8.214-23.247-30.82-41.333-60.13-41.333-29.324 0-51.938 18.103-60.142 41.366-1.754-.34-3.382-.526-4.764-.526-8.483 0-15.36 6.877-15.36 15.36s6.877 15.36 15.36 15.36c.854 0 1.805-.072 2.818-.206 6.93 26.26 38.396 44.734 62.088 44.734 23.685 0 55.138-18.464 62.082-44.71.95.12 1.842.183 2.65.183 8.483 0 15.36-6.877 15.36-15.36s-6.877-15.36-15.36-15.36z"/>
    <path class="st11" d="M271.847 200.63l-5.8-.19c0 .136-.003.315-.007.51-.017 1.008-.05 2.652-.058 3.35-.003.235 0 .49.145.672.173.218.48.26.758.283 2.335.208 7.006-.01 7.006-.01.248.02.532.03.703-.15.147-.153.154-.39.153-.602-.007-1.023 0-2.128 0-3.18v-.59l-2.9-.094z"/>
    <path class="st6" d="M318.5 93.346l.02.018c-1.737.545-3.227 1.827-3.927 3.66-.116.306-.19.614-.25.924-.03.133-.043.27-.064.407-.01.072-.027.143-.034.214l.012-.006c-.028.237-.072.47-.072.713 0 3.344 2.71 6.055 6.055 6.055 3.334 0 6.035-2.694 6.052-6.023l.203.057c2.66.402 8.812 1.116 9.53-.764.533-1.398-12.015-7.567-17.524-5.257zM336.147 77.583c1.692-.322 3.26-.494 4.6-.494.235 0 .463.023.695.034-8.1-21.637-28.728-38.563-55.573-40.163 24.472 3.54 43.01 20.055 50.277 40.623z"/>
    <path class="st6" d="M346.43 77.664c-.422 0-.875.023-1.34.057 6.366 1.875 11.018 7.755 11.018 14.73 0 8.482-5.663 11.01-14.146 11.01-.807 0-1.7-.064-2.65-.184-6.944 26.246-39.61 49.06-63.296 49.06-.693 0-1.394-.018-2.1-.05 2.656.405 5.265.626 7.784.626 23.685 0 55.138-18.464 62.082-44.71.95.12 1.842.183 2.65.183 8.483 0 15.36-6.877 15.36-15.36s-6.877-15.36-15.36-15.36z"/>
    <g class="st7">
      <path class="st8" d="M219.89 78.19c.03-.087.066-.174.098-.263-1.154-.17-2.236-.263-3.194-.263-.217 0-.428.023-.644.032 1.138.066 2.4.234 3.74.495zM340.16 78.158c.54-.102 1.063-.184 1.574-.256-8.29-23.123-30.832-41.077-60.034-41.077-.28 0-.556.013-.835.016 28.903.342 51.16 18.293 59.296 41.318zM217.942 108.178c-.66.087-1.28.137-1.88.17.245.01.485.037.732.037.38 0 .782-.02 1.196-.048-.015-.053-.034-.105-.048-.16zM346.43 77.664c-.332 0-.68.01-1.04.032 8.19.332 14.732 7.057 14.732 15.328 0 8.247-6.503 14.956-14.66 15.325.332.017.662.035.97.035 8.483 0 15.36-6.877 15.36-15.36s-6.877-15.36-15.36-15.36z"/>
    </g>
    <path class="st6" d="M297.988 122.694c.99-2.027 1.564-4.303 1.61-6.707.24-12.17-10.883-24.04-10.883-24.04s4.11 6.78 6.292 13.892c-2.722-3.187-6.763-5.214-11.283-5.214-8.2 0-14.845 6.647-14.845 14.846 0 1.942.382 3.79 1.06 5.49-.15-.216-.297-.434-.436-.66"/>
    <path class="st6" d="M284.24 121.974c-6.02-3.796-14.953-1.21-19.544 4.095-4.686 5.413-5.865 12.69-6.26 19.61-.046.796-.075 1.59-.105 2.387 3.263 1.306 6.555 2.36 9.814 3.14.065-1.627.213-3.25.505-4.864 1.053-5.812 4.156-11.612 9.635-14.636 1.995-1.1 4.31-1.857 5.956-3.32 1.646 1.463 3.962 2.22 5.956 3.32 5.48 3.024 8.582 8.824 9.636 14.636.183 1.007.297 2.02.385 3.033 3.3-1.13 6.586-2.525 9.8-4.158-.423-6.78-1.65-13.855-6.23-19.15-4.593-5.304-13.527-7.89-19.546-4.094z"/>
    <path class="st6" d="M277.718 131.318c.005 1.81.01 3.62.017 5.428 2.975.498 6.022.717 9.06.65.203-.004.418-.012.59-.1.297-.154.35-.48.37-.766.142-2.09.017-4.19-.374-6.258-2.696-.635-5.566-.788-8.343-.445"/>
    <path class="st12" d="M276.54 130.152c.006 1.81.01 3.618.017 5.427 3.042.497 6.156.716 9.26.65.21-.004.428-.012.603-.1.305-.155.36-.482.38-.766.145-2.09.016-4.19-.382-6.26-2.757-.634-5.69-.787-8.53-.444"/>
    <path class="st13" d="M286.418 129.105c-.235-.054-.477-.084-.715-.13.333 1.92.444 3.867.31 5.804-.02.283-.075.61-.38.764-.175.088-.394.097-.602.1-2.838.06-5.682-.128-8.474-.54v.475c3.043.497 6.157.716 9.262.65.208-.004.427-.012.602-.1.305-.155.36-.482.38-.766.145-2.09.017-4.19-.382-6.26z"/>
    <path class="st14" d="M309.977 259.604c-2.775-20.57-5.556-41.235-4.982-61.958.473-17.1 3.23-34.164 2.255-51.246-.396-6.92-1.574-14.197-6.26-19.61-4.592-5.306-13.526-7.89-19.545-4.096-6.02-3.795-14.954-1.21-19.545 4.095-4.686 5.413-5.865 12.69-6.26 19.61-.976 17.082 1.78 34.146 2.255 51.246.574 20.723-2.207 41.387-4.983 61.958 16.352-15.66 15.627-62.892 13.06-94.91-.47-5.876-1.173-11.82-.12-17.63 1.055-5.813 4.158-11.613 9.637-14.636 1.994-1.1 4.31-1.857 5.955-3.32 1.645 1.463 3.96 2.22 5.955 3.32 5.48 3.023 8.582 8.823 9.636 14.635 1.054 5.812.352 11.755-.12 17.632-2.566 32.017-3.29 79.25 13.06 94.91z"/>
    <path class="st15" d="M280.364 122.694c.175-.11.36-.197.54-.297-1.988-1.102-4.25-1.56-6.557-1.485 2.137.087 4.21.642 6.017 1.782zM299.91 126.79c4.685 5.413 5.864 12.69 6.26 19.61.975 17.082-3.943 34.146-4.416 51.246-.562 20.28 1.362 41.616 6.965 60.635.408.46.824.91 1.257 1.324-2.775-20.57-5.556-41.235-4.982-61.958.473-17.1 3.23-34.164 2.255-51.246-.396-6.92-1.574-14.197-6.26-19.61-3.213-3.713-8.55-6.083-13.528-5.878 4.656.15 9.466 2.433 12.447 5.877zM274.41 132.428c-5.48 3.023-8.583 8.823-9.637 14.635-1.054 5.812-.352 11.755.12 17.632 2.498 31.168-.4 73.667-11.803 93.586-.06.442-.12.883-.178 1.324 16.352-15.66 15.627-62.892 13.06-94.91-.47-5.876-1.173-11.82-.12-17.63 1.055-5.813 4.158-11.613 9.637-14.636 1.785-.986 4.384-1.732 6.044-3.32-.185-.14-5.13 2.22-7.125 3.32z"/>
    <circle class="st5" cx="280.433" cy="110.189" r="14.846"/>
    <path class="st6" d="M285.424 86.665s7.287 12.018 7.605 20.836c-.273 8.245-5.43 14.85-13.742 14.85-5.535 0-10.372-2.938-13.075-7.33 1.866 6.38 7.75 11.044 14.734 11.044 8.484 0 15.195-6.88 15.36-15.36.24-12.17-10.883-24.04-10.883-24.04zM281.032 152.838c4.072 0 8.375-.558 12.742-1.595.01-.207.026-.41.033-.618.073-2.138-.177-4.577-1.877-5.877-2.47-1.888-6.283.153-7.498 3.015-.305-1.545-3.036-2.24-4.388-1.432-1.352.81-1.98 2.43-2.276 3.98-.15.792-.22 1.588-.255 2.385 1.187.086 2.365.143 3.52.143zM251.852 98.29l.013.005c-.008-.072-.025-.143-.034-.214-.02-.136-.033-.274-.063-.407-.06-.31-.134-.618-.25-.923-.7-1.834-2.19-3.115-3.927-3.66l.02-.018c-5.51-2.31-18.057 3.86-17.524 5.256.717 1.88 6.87 1.166 9.53.764l.202-.058c.018 3.33 2.718 6.023 6.05 6.023 3.345 0 6.056-2.71 6.056-6.055 0-.244-.044-.476-.072-.712z"/>
    <circle class="st16" cx="242.861" cy="99.277" r="6.055"/>
    <path class="st2" d="M247.652 95.584c.898 2.19.46 4.8-1.32 6.58-2.364 2.364-6.198 2.364-8.562 0-.203-.203-.364-.43-.53-.65.89 2.235 3.068 3.818 5.62 3.818 3.345 0 6.056-2.71 6.056-6.055 0-1.392-.475-2.67-1.264-3.693z"/>
    <path class="st14" d="M248.857 98.57c-.056-.518-.154-1.036-.348-1.545-.7-1.834-2.19-3.116-3.93-3.66l.022-.02c-5.51-2.31-18.057 3.86-17.524 5.258.717 1.88 6.87 1.166 9.53.764 0 0 8.773-2.604 12.25-.798z"/>
    <path class="st15" d="M236.607 99.367s8.42-2.49 12.025-.89c-.423-.36-.867-.694-1.355-.962-1.665-.914-3.67-1.008-5.55-.745s-3.7.856-5.558 1.247c-2.86.6-5.818.717-8.715.344-.11-.013-.22-.035-.332-.05-.054.11-.076.21-.045.293.717 1.88 6.87 1.166 9.53.764z"/>
    <circle class="st16" cx="317.598" cy="99.277" r="6.055"/>
    <path class="st2" d="M322.41 95.646c.277.693.433 1.446.433 2.237 0 3.344-2.71 6.054-6.055 6.054-1.952 0-3.683-.927-4.79-2.36.295.72.734 1.396 1.32 1.98 2.364 2.366 6.197 2.366 8.56 0 2.164-2.16 2.325-5.538.533-7.91z"/>
    <path class="st14" d="M311.603 98.57c.055-.518.153-1.036.348-1.545.7-1.834 2.19-3.116 3.928-3.66l-.02-.02c5.51-2.31 18.057 3.86 17.524 5.258-.718 1.88-6.87 1.166-9.53.764 0 0-8.773-2.604-12.25-.798z"/>
    <path class="st15" d="M323.853 99.367s-8.42-2.49-12.026-.89c.423-.36.868-.694 1.356-.962 1.665-.914 3.67-1.008 5.55-.745s3.7.856 5.557 1.247c2.86.6 5.818.717 8.714.344.11-.013.22-.035.332-.05.054.11.077.21.046.293-.718 1.88-6.87 1.166-9.53.764z"/>
    <path class="st14" d="M280.986 145.32c-.394-1.33-2.265-1.708-3.466-1.018-1.2.69-1.837 2.05-2.274 3.364-.617 1.855-.983 3.867-.506 5.763.476 1.895 1.957 3.634 3.888 3.94-2.155 1.38-3.718 3.805-3.677 6.364.042 2.558 1.915 5.084 4.438 5.512-1.97.69-3.422 2.65-3.51 4.733-.09 2.083 1.192 4.16 3.095 5.014-1.903 1.305-3.362 3.4-3.47 5.707-.11 2.306 1.37 4.714 3.61 5.275-1.09 1.537-2.122 3.215-2.303 5.09-.18 1.877.74 3.983 2.524 4.593-.923.9-1.9 1.904-2.048 3.184-.226 1.948 1.86 3.666 3.802 3.402 1.943-.265 3.43-2.104 3.684-4.048.156-1.2-.092-2.46-.744-3.478 1.73-1.022 2.86-2.984 2.88-4.992s-1.077-3.99-2.786-5.045c2.087-1.137 3.183-3.48 3.958-5.73.438-1.27.818-2.66.39-3.935-.426-1.273-2-2.23-3.155-1.543 1.117-1.055 2.252-2.134 2.987-3.484.735-1.35 1.015-3.04.352-4.425-.664-1.385-2.45-2.25-3.834-1.58 1.824-1.67 3.733-3.478 4.357-5.87s-.7-5.46-3.158-5.716c2.29-1.316 4.234-3.427 4.824-6.002.59-2.575-.436-5.58-2.756-6.845-2.32-1.264-5.742-.185-6.522 2.34"/>
    <path class="st15" d="M290.844 150.395c.59-2.575-.437-5.58-2.756-6.845-.427-.233-.893-.385-1.372-.465.653.894 1.017 2.018 1.076 3.133.088 1.646-.395 3.272-1.024 4.796-.89 2.15-2.084 4.173-3.536 5.99 2.036 1.02 2.756 3.713 2.203 5.92-.553 2.21-2.075 4.03-3.596 5.723 2.02.366 3.698 2.15 3.938 4.19.24 2.038-.976 4.164-2.855 4.99 2.13.72 2.94 3.504 2.273 5.652-.667 2.147-2.37 3.787-4.01 5.327 1.964.327 3.194 2.55 2.967 4.53-.227 1.978-1.563 3.667-3.095 4.94 1.097.91 1.564 2.43 1.453 3.85-.11 1.423-.732 2.76-1.502 3.96l-.1.16c.06-.005.12.005.18-.003 1.943-.265 3.43-2.104 3.684-4.048.156-1.2-.093-2.46-.743-3.48 1.727-1.02 2.86-2.982 2.878-4.99.018-2.008-1.077-3.99-2.786-5.045 2.087-1.137 3.183-3.48 3.958-5.73.438-1.27.818-2.66.39-3.935s-2-2.23-3.155-1.543c1.117-1.055 2.252-2.134 2.987-3.484.735-1.35 1.015-3.04.352-4.425-.664-1.385-2.45-2.25-3.834-1.58 1.824-1.67 3.733-3.478 4.357-5.87.625-2.394-.7-5.46-3.158-5.716 2.29-1.316 4.234-3.427 4.824-6.002z"/>
    <path class="st17" d="M282.732 205.988c-.358-.655-1.118-.98-1.88-.9-.814-.016-1.245.203-1.758.51-.688.413-1.118 1.286-.878 2.052.246.79 1.1 1.253 1.925 1.33.807.073 1.664-.17 2.223-.754.56-.584.757-1.528.37-2.238z"/>
    <path class="st18" d="M282.732 205.988c-.19-.346-.526-.59-.9-.71.262.68.077 1.504-.433 2.037-.56.584-1.418.827-2.223.752-.3-.027-.593-.123-.87-.25.312.68 1.075 1.092 1.834 1.162.807.073 1.664-.17 2.223-.754.56-.584.757-1.528.37-2.238z"/>
    <path class="st14" d="M287.93 210.838c-.715-1.432-2.143-2.44-3.696-2.826-1.388-.347-2.856-.215-4.23.195-1.35.09-2.663.736-3.597 1.73-1.174 1.247-1.776 2.968-1.844 4.68s.29 3.454 1.052 4.988c1.4 2.81 4.755 4.308 5.75 4.595 1.107.32 2.28.308 3.43.26-.993-1.488-.762-3.67.52-4.918.546-.532 1.24-.894 1.776-1.438.885-.897 1.238-2.192 1.367-3.445.134-1.297.053-2.655-.528-3.822z"/>
    <path class="st15" d="M287.09 218.104c.885-.897 1.238-2.192 1.367-3.445.134-1.297.053-2.655-.528-3.822-.715-1.432-2.143-2.44-3.696-2.826-1.388-.347-2.856-.215-4.23.195-.28.02-.557.075-.83.14.086.21.207.408.36.57.515.542 1.25.802 1.945 1.08.693.277 1.414.622 1.81 1.257.314.5.38 1.117.367 1.708-.033 1.538-.546 3.02-.93 4.508-.384 1.49-.638 3.086-.163 4.55.31.954.897 1.752 1.612 2.458.206-.005.413-.01.62-.018-.994-1.488-.763-3.67.52-4.918.545-.532 1.24-.894 1.775-1.438z"/>
    <path class="st19" d="M257 113.767c-.033-1.13-.204-2.3-.822-3.245-1.306-2-4.044-2.344-6.43-2.492-4.386-.325-6.654-.154-11.013.447-1.555.215-3.15.57-4.406 1.51-1.258.94-2.093 2.6-1.65 4.106.55 1.872 2.684 2.727 4.584 3.17 5.42 1.263 11.132 1.256 16.55-.022 1.16-.272 2.44-.713 2.943-1.793.24-.517.26-1.11.243-1.68zM328.7 113.915c-.033-1.13-.204-2.298-.822-3.245-1.306-2-4.044-2.344-6.43-2.492-4.386-.324-6.654-.153-11.012.448-1.556.214-3.15.57-4.407 1.51-1.258.94-2.093 2.6-1.65 4.105.55 1.873 2.684 2.728 4.584 3.17 5.42 1.264 11.132 1.257 16.55-.02 1.16-.274 2.44-.715 2.943-1.794.24-.518.26-1.11.243-1.68z"/>
    <path class="st14" d="M318.36 93.01c3.896.258 7.993.48 11.518-1.202-.013.96-.036 1.94-.356 2.846-.32.905-.992 1.74-1.915 2.006M233.614 95.574c-1-1.068-1.593-2.51-1.63-3.972 1.762 1.23 4.054 1.318 6.204 1.34 1.486.015 3.16.1 4.148 1.21"/>
    <path class="st5" d="M270.14 211.405c10.052-1.2 20.026-3.05 29.84-5.534.606-5.795-11.412-6.965-11.412-6.965-1.17-3.96-6.224-4.545-12.203-4.667-8.415-.172-16.967-.33-25.092 1.87-1.363.37-2.747.825-3.833 1.73-2.015 1.677-2.58 4.503-2.87 7.11-.314 2.816-.456 5.652-.425 8.487"/>
    <path class="st6" d="M259.065 196.975c-2.144.758-4.274 1.672-6.02 3.13-3.608 3.013-5.082 8.014-4.854 12.71l-4.04-.46c.01-2.474.145-4.948.42-7.408.29-2.606.855-5.432 2.87-7.11 1.086-.904 2.47-1.36 3.833-1.728 6.2-1.68 12.646-1.984 19.09-1.96-1.337.305-2.695.54-4.04.813-2.462.5-4.89 1.174-7.258 2.012z"/>
    <path class="st6" d="M276.365 194.238c5.98.122 11.843.57 12.383 4.352 0 0 9.633.45 11.088 5.758-.93-.993-2.132-1.77-3.407-2.26-2.31-.89-6.363-1.084-8.836-1.202.59-1.638-.25-3.02-1.836-3.79s-3.372-1.02-5.13-1.156c-11.72-.903-29.038.557-34.916 4.224.41-.89.965-1.69 1.728-2.327 1.086-.904 2.47-1.36 3.833-1.728 8.125-2.2 16.677-2.044 25.092-1.872z"/>
    <path class="st6" d="M287.756 200.79c-3.98.533-7.934 1.264-11.842 2.19 6.845-.28 15.213-1.875 21.6-.395l-.686-1.024-4.59-1.383-2.905-.237-1.577.85zM291.983 207.737c-1.926.174-3.844.54-5.758.838-2.88.446-5.78.725-8.68 1.003-8.78.843-17.59 1.687-26.406 1.382-2.318-.08-4.632-.25-6.937-.492-.032.99-.07 1.978-.058 2.967l25.995-2.03c7.334-.876 14.624-2.106 21.843-3.668zM250.996 77.75c-.383-.826-1.51-1.12-2.384-.864-.875.257-1.546 1.02-1.83 1.887-.08-1.235.29-2.453.376-3.688s-.21-2.635-1.247-3.31c-1.428-.93-3.467.13-4.18 1.68-.71 1.547-.484 3.344-.244 5.032-.135-1.825-1.22-3.554-2.804-4.47-1.584-.914-3.624-.99-5.272-.196-1.107.535-2.027 1.55-2.173 2.77-.422 3.53 2.07 4.548 2.888 4.93.705.33 1.52.293 2.295.25 4.075-.23 8.15-.457 12.225-.686.315-.017 1.357-.507 1.664-1.013 0 0 1.214-1.176.686-2.32zM318.636 81.462c-1.046.212-2.162.13-3.18-.19s-1.938-1.11-2.184-2.15c-.126-.527-.027-1.17.43-1.463.208-.134.462-.176.708-.186.886-.035 1.78.325 2.394.963-.227-.758-.39-1.536-.483-2.322-.11-.92-.07-1.982.628-2.588.873-.757 2.33-.31 3.027.612.697.92.838 2.134.955 3.283.492-1.805 1.543-3.453 2.972-4.66.647-.548 1.388-1.014 2.216-1.19 1.897-.4 3.89.91 4.623 2.706.532 1.302.486 2.828-.123 4.097-.61 1.27-1.77 2.26-3.12 2.66-.51.152-1.042.222-1.57.29-2.423.32-4.9.636-7.29.135"/>
    <path class="st14" d="M249.327 77.75c-.383-.826-1.51-1.12-2.385-.864-.874.257-1.545 1.02-1.83 1.887-.08-1.235.29-2.453.377-3.688s-.21-2.635-1.25-3.31c-1.427-.93-3.466.13-4.178 1.68-.712 1.547-.486 3.344-.245 5.032-.135-1.825-1.22-3.554-2.804-4.47-1.585-.914-3.624-.99-5.272-.196-1.106.535-2.026 1.55-2.172 2.77-.422 3.53 2.07 4.548 2.888 4.93.705.33 1.52.293 2.295.25 4.076-.23 8.15-.457 12.226-.686.315-.017 1.357-.507 1.664-1.013 0 0 1.215-1.176.687-2.32zM316.967 81.462c-1.046.212-2.162.13-3.18-.19s-1.938-1.11-2.185-2.15c-.125-.527-.026-1.17.43-1.463.21-.134.462-.176.71-.186.885-.035 1.78.325 2.393.963-.227-.758-.39-1.536-.483-2.322-.11-.92-.072-1.982.627-2.588.87-.757 2.33-.31 3.026.612.697.92.838 2.134.955 3.283.493-1.805 1.544-3.453 2.973-4.66.646-.548 1.387-1.014 2.216-1.19 1.896-.4 3.89.91 4.622 2.706.53 1.302.485 2.828-.124 4.097-.61 1.27-1.77 2.26-3.12 2.66-.51.152-1.042.222-1.57.29-2.423.32-4.9.636-7.29.135"/>
    <path class="st15" d="M239.893 80.008c.122-.81-.148-1.852-.293-2.656-.408-1.382-1.338-2.612-2.587-3.334-.893-.516-1.93-.755-2.96-.732 2.297 1.685 3.93 4.582 5.84 6.722zM244.24 71.775c-.183-.12-.378-.204-.578-.26.434.71.97 1.462 1.06 2.29.206 1.887.39 4.968.39 4.968.24-1.156.306-2.674.377-3.688.084-1.235-.21-2.635-1.25-3.31zM249.327 77.75c-.202-.435-.613-.72-1.084-.857 1.025 1.245-.11 3.115-2.89 4.282l1.623-.09c.315-.018 1.357-.508 1.664-1.014 0 0 1.215-1.176.687-2.32zM329.072 74.28c-.467-1.147-1.45-2.09-2.59-2.522.06.096.12.192.172.292.493.954.598 2.062.578 3.136-.022 1.225-.207 2.48-.816 3.542-.837 1.46-2.404 2.4-4.045 2.776-.17.04-.343.072-.516.106.803-.075 1.606-.177 2.403-.282.53-.07 1.06-.14 1.57-.29 1.35-.402 2.512-1.392 3.12-2.66.61-1.27.656-2.796.125-4.1zM319.26 77.423c-.116-1.15-.257-2.362-.954-3.284-.454-.6-1.23-.992-1.956-.99.123.112.24.23.345.352 1.255 1.448 1.958 3.3 2.38 5.17.126-.468.202-1.31.186-1.25z"/>
    <path class="st6" d="M221.558 78.19l-.053-.008c-.43-.083-.853-.157-1.265-.22-.052.288-.107.57-.155.87-1.742 10.972-.47 22.093.765 33.225 1.18 3.226 2.725 6.318 4.573 9.254l.005.008c.457.726.932 1.442 1.425 2.15l.024.033c.49.7.995 1.39 1.518 2.07l.036.048c.524.68 1.063 1.348 1.617 2.007l.034.042s.33-17.003-1.1-30.897c-2.007-19.49 1.43-35.007 1.43-35.007-4.158 5.266-6.64 10.158-8.852 16.428zM341.83 78.158c-1.504-4.258-3.497-8.34-5.92-12.174.493 4.833 2.1 12.565 2.273 13.51 1.054 5.813.352 11.755-.12 17.632-.64 7.99-1.165 16.926-1.34 26.083 3.188-4.62 5.64-9.65 7.06-15.008.95.12 1.84.183 2.648.183.383 0 .758-.03 1.133-.058.79-9.835 1.48-19.666.834-29.496-.024-.357-.058-.697-.09-1.04-.617-.075-1.24-.126-1.876-.126-1.338 0-2.908.172-4.6.494z"/>
    <path class="st14" d="M230.41 61.763s-10.74-1.873-13.66 16.527c-2.684 16.898 1.78 34.146 2.254 51.246.574 20.723-2.207 41.386-4.983 61.958 16.353-15.66 15.628-62.892 13.06-94.91-.44-5.496-1.255-25.07 3.33-34.82zM342.805 129.536c.474-17.1 3.378-34.174 2.255-51.246-1.1-16.73-12.235-16.73-12.235-16.73-1.508.325 1.772 16.02 2.022 17.393 1.054 5.812.35 11.755-.12 17.632-2.566 32.017-3.29 79.25 13.06 94.91-2.775-20.573-5.556-41.236-4.982-61.96z"/>
    <path class="st15" d="M230.41 61.763s-1.227-.21-2.96.214c-4.072 10.042-3.298 28.467-2.873 33.773 2.392 29.833 3.178 72.863-9.954 91.265-.2 1.494-.4 2.986-.602 4.48 16.353-15.66 15.628-62.893 13.06-94.91-.44-5.497-1.255-25.07 3.33-34.822z"/>
    <path class="st20" d="M342.556 77.455c1.124 17.073-1.78 34.146-2.255 51.246-.55 19.916 1.997 39.775 4.66 59.55.88 1.193 1.82 2.28 2.828 3.244-2.776-20.572-5.557-41.235-4.983-61.958.474-17.1 3.378-34.174 2.255-51.246-.864-13.14-7.915-15.958-10.903-16.564 3.333 1.555 7.73 5.533 8.4 15.73z"/>
    <g>
      <path class="st6" d="M329.824 57.915c-6.932-7.78-15.944-13.935-26.476-17.54-1.48.277-2.924.707-4.292 1.344-3.448 1.604-6.368 4.61-7.233 8.314l-2.183 2.29c4.865.84 9.783 1.378 14.714 1.608 3.688.172 7.427.18 10.993 1.134 5.65 1.514 10.392 5.27 14.866 9.037.22-2.075.06-4.157-.39-6.188z"/>
    </g>
    <g>
      <path class="st14" d="M239.793 51.843c4.507-3.962 10.42-5.214 16.386-4.565 5.964.65 11.682 2.677 17.547 3.95 9.55 2.07 19.537 2.11 29.105.12 7.74-1.61 16.018-3.334 22.125 1.686-6.383-13.036-22.283-19.78-35.283-21-18.898-1.77-39.436 2.61-49.88 19.81"/>
    </g>
    <g class="st21">
      <path class="st8" d="M302.832 51.348c7.74-1.61 16.018-3.334 22.125 1.686-3.687-7.53-10.55-12.955-18.193-16.435-.797.67-1.51 1.464-2.115 2.303-1.463 2.025-2.498 4.332-3.963 6.355-2.478 3.423-6.052 5.834-9.967 7.515 4.068-.124 8.126-.596 12.112-1.425z"/>
    </g>
    <g>
      <path class="st22" d="M10.574 258.83c1.114 14.24.388 34.622 9.95 45.232 5.72 6.35 21.73 15.503 30.124 17.108 33.174 6.34 118.052 7.305 112.384-63.875"/>
      <path class="st5" d="M28.016 180.122c-5.123-4.832-13.554-3.467-19.22 2.11-5.807 5.715-7.912 12.818-8.59 17.723s.282 10.237 3.554 13.954c3.272 3.716 9.117 5.305 13.425 2.864.734-.416 1.418-.942 1.918-1.62.67-.908.97-2.027 1.262-3.116 2.742-10.234 5.89-20.36 9.43-30.344"/>
      <path class="st6" d="M18.4 203.97c4.52-1.98 6.892-7.1 7.464-12 .522-4.468-.11-8.98-.133-13.48-.593-.32-1.212-.578-1.85-.78-4.508 1.5-8.493 4.558-11.063 8.558-.81 1.26-1.488 2.62-1.862 4.073-1.427 5.54 1.717 11.474.37 17.033l7.074-3.404z"/>
      <path class="st14" d="M85.768 112.92C64.3 87.904 35.18 107.842 29.182 123.382s-1.232 34.77 11.726 45.236 37.094 11.555 49.37-1.78"/>
      <path class="st15" d="M64.59 139.916c.757-3.46-.095-7.125-1.718-10.275-1.632-3.165-3.997-5.888-6.407-8.51-4.446-4.838-9.357-9.577-15.07-12.667-2.153 1.587-4.114 3.346-5.83 5.188 5.362 2.19 10.258 5.53 14.557 9.44 5.33 4.848 9.82 10.542 14.077 16.36-2.808-3.176-6.908-5.223-10.812-7.083-7.77-3.702-15.923-7.468-24.323-8.66-.896 2.387-1.54 4.857-1.942 7.368 13.58.652 27.014 4.414 38.92 10.986-.416-.77-.91-1.478-1.452-2.144z"/>
      <path class="st15" d="M51.4 150.866c-4.374 1.548-8.866 2.934-13.5 3.198-2.776.16-5.62-.13-8.262-.97.958 2.39 2.137 4.688 3.53 6.846 6.684.38 13.467-.907 19.514-3.788 8.266-3.94 15.095-10.815 18.976-19.108-4.17 7.24-12.38 11.035-20.257 13.822zM70.597 117.193c3.126-3.42 4.947-7.947 5.263-12.564-3.94-2.192-7.97-3.285-11.94-3.522l.065.26c1.207 4.968 2.095 10.013 2.657 15.095.067.604.154 1.26.59 1.684.94.908 2.483.01 3.365-.954zM90.278 166.84l-1.63-19.49c-3.802-1.146-8.022-.436-11.833.83-.928.308-1.857.653-2.66 1.212-1.242.863-2.09 2.168-2.966 3.4-3.808 5.363-8.81 10.004-14.833 12.642-5.578 2.443-12.077 3.037-17.82 1.083.757.733 1.547 1.435 2.37 2.1 12.96 10.467 37.095 11.556 49.37-1.778z"/>
      <path class="st23" d="M69.89 134.29c-13.574 2.258-32.758 16.364-41.6 31.156-7.062 11.81-7.492 15.112-9.74 28.688-2.03 12.253-15.58 62.38-3.652 98.474 28.193 9.88 71.914 20.754 120.735 6.823 10-2.853 21.084-9.066 24.776-18.788 7.112-18.73-1.524-99.234-9.993-144.766"/>
      <path class="st22" d="M160.287 207.527c-39.65 17.288-83.144 27.487-126.15 23.127-6.93-.703-14.114-1.736-21.052-1.528-2.495 21.783-4.995 42.88 1.813 63.482 6.108 14.39 71.914 20.754 120.735 6.823 10-2.853 21.084-9.066 24.776-18.788 4.004-10.545 3.016-40.672-.123-73.115z"/>
      <path class="st24" d="M51.357 231.632c-1.23-.018-2.46-.048-3.69-.088l-25.57 14.612c-.548 18.467 1.11 45.784 5.382 63.758 6.366 4.056 13.15 8.733 23.877 11.39.013-24.763-.014-64.91 0-89.672z"/>
      <path class="st25" d="M211.424 176.35c-.69 38.276.41 75.6 1.37 113.87.872 1.854 1.957 2.705 4.73 2.705 3.176 0 4.027-2.09 4.025-4.635-.02-34.87-2.97-68.73-2.116-103.592"/>
      <path class="st26" d="M221.55 288.29c-.02-34.87-2.97-68.73-2.116-103.592l-7.37-7.59c-.218.015-.436.024-.654.04-.08 4.41-.147 8.43-.204 12.135 1.006.648 3.057 1.19 3.848 2.082 1.368 1.54 1.533 3.774 1.626 5.832.22 4.88.41 9.762.6 14.643.32 8.24.643 16.48.964 24.72.355 9.11.703 47.22.083 56.295 2.503-.338 3.223-2.255 3.222-4.565z"/>
      <path class="st26" d="M218.986 231.768c-.37 1.806-.48 3.665-.327 5.502.05.6.135 1.22.458 1.728.323.507 1.333 6.798 1.372 6.197.295-4.555.913-5.972 1.16-6.352 1.033-1.58 1.31-3.536 1.354-5.423.023-1.022-.034-2.11-.614-2.95-.58-.843-1.857-1.276-2.656-.64-.83.663-.686 1.962-1.172 2.906"/>
      <path class="st6" d="M194.613 164.22c6.242-1.7 19.18-2.84 31.402-2.242.93.045 1.895.1 2.713.545.862.47 1.45 1.314 1.944 2.163 2.414 4.15 3.315 9.16 2.497 13.89-.642 3.708-3.43 8.044-7.146 9.094-5.795 1.638-17.203-1.378-23.613-4.88-3.26-1.78-2.732-6.44-8.52-7.958"/>
      <path class="st6" d="M226.472 184.215c1.483.8 2.965 1.603 4.447 2.404.968.522 1.99 1.06 3.09 1.05 1.84-.017 3.304-1.536 4.297-3.085 3.554-5.545 2.92-12.21-.444-17.872-1.527-2.573-4.4-4.34-8.923-4.897-3.09-.38-18.73-1.116-26.207 2.164"/>
      <path class="st27" d="M215.765 177.053c2.146.396 4.332.575 6.513.534 1.41-.026 2.825-.143 4.22.057s2.798.76 3.69 1.848c1.504 1.834 1.103 4.698-.333 6.585.753.572 1.61 1.007 2.518 1.276.852-2.518 1.363-5.15 1.512-7.805.084-1.482.042-3.028-.62-4.356-.84-1.688-2.626-2.797-4.492-3.07-3.693-.54-13.008-.666-13.008 4.93"/>
      <path class="st28" d="M131.415 136.35c6.137 4.317 13.174 7.16 20.23 9.712 17.477 6.322 35.515 11.095 53.832 14.246 1.187.204 2.503.478 3.198 1.462.508.72.56 1.656.573 2.536.25 15.62-5.562 31.258-15.954 42.92-10.392 11.664-25.26 19.235-40.805 20.78"/>
      <path class="st23" d="M208.675 161.77c-.695-.984-2.01-1.258-3.198-1.462-18.317-3.15-36.355-7.924-53.832-14.246-.892-.323-1.783-.65-2.673-.985l-3.303 10.64c14.167 2.748 55.18 6.706 57.55 6.932 1.927.184 3.872.074 5.795-.16-.082-.254-.184-.5-.34-.72z"/>
      <path class="st24" d="M71.365 323.61c8.782.148 16.63 1.167 26.737-.592 5.26-25.157 7.676-67.932 5.992-93.577l-16.636-.328c-5.255.79-10.53 1.403-15.816 1.83.92 25.397.826 67.28-.277 92.667zM125.69 316.816c11.285-2.81 23.183-13.422 26.234-17.867 2.65-25.24 2.67-59.22-2.056-84.153l-21.752 4.81c-.808.253-1.616.51-2.426.756 2.61 27.107 2.585 69.344 0 96.453z"/>
      <path class="st29" d="M161.85 226.053l-.008-.126c-.206-2.884-.434-5.816-.685-8.785l-.03-.362c-.092-1.08-.185-2.162-.282-3.25 0 0-.002 0-.003.002-.177-1.99-.36-3.99-.555-6.005-21.494 9.37-44.12 16.648-67.182 20.662 1.117-6.385 1.475-13.204 1.063-20.47l-29.86-22.11c-12.473 9.653-24.554 10.008-40.212 11.9-17.592 9.598-23.06 67.136 9.523 83.912 5.94 3.06 13.293 2.285 19.348-.545s16.734-11.83 21.464-16.553c4.552-4.544 8.324-9.525 11.318-14.946 16.04-.227 34.444-3.355 50.304-9.144.696 10.805 1.054 21.632 1.028 32.46-.022 9.094 1.73 30.82-.71 39.5.45-.125 24.88-14.75 26.93-35.62.89-9.043.318-25.635-1.45-50.52z"/>
      <path class="st30" d="M22.096 246.156c-.268 9.057.056 18.13.956 27.145 2.952 3.238 6.456 6.005 10.567 8.122 5.416 2.79 12 2.386 17.71.15l.027-49.94c-1.23-.018-2.46-.048-3.69-.088l-25.57 14.612zM104.694 247.888c0-6.154-.197-12.307-.6-18.447l-16.636-.328c-5.255.79-10.53 1.403-15.816 1.83.43 11.816.628 23.64.617 35.463.81-.75 1.546-1.455 2.172-2.08 4.552-4.545 8.324-9.526 11.318-14.947 6.065-.086 12.468-.588 18.944-1.49zM151.924 298.95c2.65-25.24 2.67-59.22-2.056-84.153l-21.752 4.81c-.203.063-.406.125-.61.19l-.396.123c-.473.148-.946.298-1.42.443.728 7.563 1.246 15.146 1.57 22.737 2.993-.87 5.936-1.823 8.794-2.866.696 10.805 1.054 21.632 1.028 32.46-.022 9.09.483 29.72-.71 39.5 7.707-3.282 15.55-13.245 15.552-13.245z"/>
      <path class="st23" d="M84.275 223.063c1.657-5.266 3.19-10.438 4.69-15.227 6.635.055 13.29-.332 19.793-1.613 29.062-5.727 48.796-19.27 50.565-28.06.43-.147.856-.128 1.272.017-.26-.658-.52-1.347-.773-2.134l-.564-1.193c-4.724-2.713-10.24-2.737-15.734-1.833-1.246-4.8-4.647-9.215-8.125-12.958-9.13-9.828-19.712-18.297-31.274-25.097l-34.235-.675c-1.475.246-3.02.64-4.606 1.15l-3.62 2.35c-2.124 6.795 3.224 9.615 5.614 16.32 1.36 3.813 4.64 1.857 4.38 5.895-.682 10.586-12.897 22.228-12.897 22.228s-1.223 8.472-.235 11.12c2.684 7.196 5.37 14.397 8.417 21.448.95 2.195 1.986 4.448 3.8 6.005 1.815 1.558 4.228 2.25 6.605 2.51 2.33.255 4.643.134 6.928-.252z"/>
      <path class="st31" d="M159.323 178.162c.43-.146.856-.127 1.272.018-.26-.658-.52-1.347-.773-2.134l-.564-1.193c-4.724-2.713-10.24-2.737-15.734-1.833-1.246-4.8-4.647-9.215-8.125-12.958-6.663-7.172-14.106-13.61-22.13-19.214-13.11 2.662-25.454 8.717-36.217 16.7l-3.3-5.033c5.48 22.023 22.594 40.793 44.02 48.277 1.85.647 3.73 1.2 5.627 1.677 20.897-6.67 34.47-17.088 35.923-24.308z"/>
      <path class="st32" d="M93.57 175.26c4.09 8.524 12.375 14.446 21.246 17.717s18.402 4.212 27.813 5.125c1.862.18 3.83.345 5.525-.452 2.664-1.254 5.89-5.6 6.46-8.49.92-4.67 1.428-9.975.93-14.71-14.204-1.8-30.82-1.925-45.023-3.724-5.78-.732-12.213-1.305-16.89 2.17"/>
      <path class="st31" d="M74.04 156.763c-1.577 3.06-1.94 6.88-.854 12.546.766 3.997 3.403 7.677 6.624 10.166 3.12 2.41 7.403 2.45 11.345 2.352M89.222 207.81c.4-2.275 1.148-4.528 1.81-6.742 1.207 1.357 2.21 3.085 3.136 6.652.462 1.784-.903 3.25-3.437 2.69-.454-.102-.965-.297-1.107-.74"/>
      <path class="st33" d="M165.654 202.264c-.136-6.665-1.347-25.79-6.33-24.102-1.77 8.792-21.504 22.334-50.566 28.06-6.502 1.282-13.158 1.67-19.793 1.614-3.704 11.826-7.565 25.96-13.184 38.19 26.256.848 61.195-6.865 80.327-21.896 9.594-7.537 9.617-18.426 9.547-21.866z"/>
      <path class="st34" d="M128.756 205.256c3.01-.78 6.24-1.794 8.035-4.333.244-.343.463-.77.327-1.17-.087-.255-.305-.443-.53-.594-.662-.45-1.426-.682-2.222-.8-7.29 3.178-15.927 5.955-25.607 7.863-6.437 1.268-13.024 1.66-19.592 1.613-.023.036-.05.067-.073.103l1.232 1.522c12.903 1.1 25.897-.95 38.43-4.206z"/>
      <path class="st35" d="M165.654 202.264c-.014-.708-.042-1.563-.084-2.512v-.027l-.035-.728-.003-.054c-.05-1-.118-2.087-.204-3.226l-.01-.153-.05-.61-.03-.363-.048-.543c-.014-.154-.027-.307-.042-.46-.016-.168-.032-.337-.05-.505-.015-.167-.032-.333-.05-.5-.016-.168-.034-.335-.052-.503-.02-.17-.038-.342-.057-.512-.02-.162-.038-.324-.057-.487-.022-.185-.045-.37-.07-.557l-.054-.438-.084-.617-.053-.387c-.043-.294-.087-.587-.132-.878l-.015-.103c-.052-.33-.106-.657-.162-.98l-.047-.26c-.042-.234-.084-.467-.128-.696-.02-.107-.042-.21-.063-.317-.04-.206-.082-.41-.126-.61l-.075-.337c-.04-.19-.084-.377-.128-.562l-.08-.332c-.046-.18-.09-.355-.138-.53-.03-.107-.06-.214-.088-.32-.048-.17-.097-.338-.147-.504l-.09-.294c-.055-.173-.11-.34-.168-.504-.028-.08-.055-.163-.083-.24-.07-.193-.14-.376-.214-.555-.018-.046-.035-.094-.053-.137-.093-.223-.19-.435-.287-.635-.014-.03-.03-.054-.043-.082-.084-.165-.17-.325-.256-.474-.033-.057-.068-.108-.102-.163-.07-.113-.14-.223-.213-.324-.04-.057-.084-.108-.126-.16-.07-.088-.14-.173-.21-.25-.046-.05-.092-.095-.14-.14-.07-.068-.14-.13-.212-.188-.05-.04-.1-.076-.15-.11-.073-.05-.148-.093-.224-.132-.05-.027-.102-.054-.155-.075-.08-.03-.162-.054-.243-.074-.052-.012-.102-.028-.155-.036-.09-.013-.184-.013-.278-.01-.045 0-.09-.006-.137 0-.14.013-.286.042-.434.092-.064.318-.16.644-.27.974-.024.073-.05.146-.076.22-.118.325-.254.654-.416.99-.023.05-.052.1-.077.15-.155.31-.328.622-.52.938-.038.064-.073.128-.114.193-.217.347-.455.698-.714 1.053-.05.07-.106.14-.16.212-.253.338-.522.678-.813 1.022-.028.034-.054.067-.083.1-.315.37-.656.74-1.013 1.114l-.222.23c-.37.378-.753.758-1.164 1.14l-.048.044c-.4.37-.826.744-1.266 1.118l-.25.214c-.456.38-.93.762-1.423 1.144-.07.055-.145.11-.216.165-.466.356-.948.712-1.447 1.07-.073.05-.143.102-.216.154-.54.382-1.102.763-1.68 1.143l-.33.216c-.586.38-1.184.76-1.804 1.136l-.034.02c-.626.38-1.276.757-1.938 1.133l-.418.236c-.66.37-1.333.737-2.026 1.1-.083.043-.17.086-.252.13-.634.33-1.283.655-1.944.98l-.468.228c-.712.344-1.44.685-2.183 1.022-3.748 1.698-7.874 3.295-12.337 4.72 0 0 3.88-.875 7.908 1.322 3.64 1.985 5.24 26.54 4.147 31.78 7.853-3.146 14.956-6.967 20.652-11.442 9.594-7.537 9.617-18.426 9.547-21.866z"/>
      <path class="st36" d="M161.45 185.172c.668-1.125 1.155-2.326 1.498-3.573-.067-.187-.137-.366-.208-.54-.018-.046-.035-.094-.053-.137-.093-.223-.19-.435-.287-.635-.014-.03-.03-.054-.043-.082-.084-.165-.17-.325-.256-.474-.033-.057-.068-.108-.102-.163-.07-.113-.14-.223-.213-.324-.04-.057-.084-.108-.126-.16-.07-.088-.14-.173-.21-.25-.046-.05-.092-.095-.14-.14-.07-.068-.14-.13-.212-.188-.05-.04-.1-.076-.15-.11-.073-.05-.148-.093-.224-.132-.05-.027-.102-.054-.155-.075-.08-.03-.162-.054-.243-.074-.052-.012-.102-.028-.155-.036-.09-.013-.184-.013-.278-.01-.045 0-.09-.006-.137 0-.14.013-.286.042-.434.092-.064.318-.16.644-.27.974-.024.073-.05.146-.076.22-.118.325-.254.654-.416.99-.023.05-.052.1-.077.15-.155.31-.328.622-.52.938-.038.064-.073.128-.114.193-.217.347-.455.698-.714 1.053-.05.07-.106.14-.16.212-.253.338-.522.678-.813 1.022-.028.034-.054.067-.083.1-.315.37-.656.74-1.013 1.114l-.222.23c-.37.378-.753.758-1.164 1.14l-.048.044c-.4.37-.826.744-1.266 1.118l-.25.214c-.456.38-.93.762-1.423 1.144-.07.055-.145.11-.216.165-.466.356-.948.712-1.447 1.07-.073.05-.143.102-.216.154-.54.382-1.102.763-1.68 1.143l-.33.216c-.586.38-1.184.76-1.804 1.136l-.034.02c-.626.38-1.276.757-1.938 1.133l-.418.236c-.66.37-1.333.737-2.026 1.1-.083.043-.17.086-.252.13-.634.33-1.283.655-1.944.98l-.468.228c-.712.344-1.44.685-2.183 1.022-3.748 1.698-7.874 3.295-12.337 4.72 0 0 3.88-.875 7.908 1.322.114.062.225.146.335.25 4.134-1.02 8.145-2.722 12.075-4.412 1.824-.783 3.657-1.572 5.326-2.646 1.148-.74 2.207-1.606 3.255-2.48 2.048-1.706 4.07-3.45 5.94-5.352 1.197-1.22 2.34-2.51 3.21-3.98z"/>
      <path class="st5" d="M188.1 135.538c0 30.477-28.334 55.193-63.366 55.184-20.72-.006-38.403-10.806-46.12-30.14-3.23-8.09-11.336-14.68-11.336-23.697 0-30.477 22.46-56.53 57.456-56.53S188.1 105.06 188.1 135.537z"/>
      <path class="st6" d="M90.428 132.323c4.415.29 8.616-1.733 12.577-3.706 2.597-1.293 21.55-25.403 60.184-22.25-.858-2.01-2.325-6.815-4.285-7.784-1.037-.513-2.224-.62-3.38-.685-19.08-1.085-38.478 7.012-51.125 21.342-4.23 4.794-8.014 10.447-13.9 12.95"/>
      <path class="st15" d="M181.725 114.045c.872-.07 1.793-.134 2.583.243.362.172.68.43.956.722.733.77 1.208 1.83 1.107 2.89s-.857 2.07-1.893 2.307"/>
      <ellipse transform="rotate(-15.678 185.006 124.75)" class="st16" cx="185.006" cy="124.749" rx="5.202" ry="5.202"/>
      <path class="st2" d="M188.145 120.628c.39.51.693 1.096.876 1.75.778 2.766-.835 5.638-3.602 6.415-1.614.453-3.262.088-4.51-.84.41.526.93.984 1.55 1.332 2.506 1.407 5.677.517 7.084-1.988 1.287-2.29.636-5.122-1.397-6.67z"/>
      <path class="st6" d="M124.734 80.354c-1.21 0-2.41.036-3.606.095 31.282 12.324 47.217 32.418 47.217 61.84 0 29.423-18.668 45.343-47.217 48.337 1.195.058 2.395.095 3.606.095 34.996 0 63.365-24.707 63.365-55.184 0-30.477-28.37-55.184-63.366-55.184z"/>
      <path class="st14" d="M63.902 136.434c-1.93-11.806 1.673-26.778 8.157-38.864 4.57-8.52 10.374-13.882 18.612-18.944 8.856-5.442 19.382-8.013 29.763-8.543 28.358-1.448 55.61 15.065 51.45 28.592 0 0-45.34 4.46-61.438 22.53-24.84 27.885-35.116 11.09-35.116 11.09"/>
      <path class="st15" d="M74.765 132.288l.032.2.208-.076c-.08-.04-.16-.083-.24-.124z"/>
      <path class="st15" d="M89.527 136.698c-2.468.23-5.588.762-7.334-1.008-1.07-1.084-4.474-3.956-9.292-4.34 1.165 1.518 8.314 8.273 16.627 5.348zM163.19 99.8c-.016-.173-.03-.346-.05-.52-.308-2.582-1.158-5.1-2.48-7.34-1.222-2.073-11.16-6.868-10.82-6.15 3.03 6.357.22 12.31-9.335 15.978-9.56 3.672-18.724 8.693-26.43 15.438-4.015 3.514-12.61 12.76-12.798 12.916 2.87-1.83 6.278-5.782 9.17-8.917 12.078-13.097 39.255-18.742 52.742-21.404z"/>
      <path class="st5" d="M81.252 147.385c.47-1.302.738-2.7.738-4.162 0-6.793-5.507-12.3-12.3-12.3-6.793 0-12.3 5.507-12.3 12.3 0 8.718 8.67 19.81 17.55 19.288 4.897-.288 8.882-3.975 8.882-8.88 0-2.436-.982-4.64-2.57-6.245z"/>
      <path class="st6" d="M137.546 138.013c-.104-.37-.242-.72-.396-1.057-.024-.054-.047-.11-.073-.162-.056-.115-.115-.228-.177-.34-.066-.13-.147-.257-.223-.385-.02-.03-.036-.06-.056-.09-.09-.15-.174-.306-.28-.452-1.413-1.903-3.562-2.906-5.76-2.973l.018-.027c-1.79-.222-3.914.315-6.08 1.268-.51.097-6.91 4.204-6.91 4.204-3.602 2.762-6.17 5.663-5.66 6.352 1.446 1.95 8.364-.886 11.323-2.22l.216-.132c.363 1.268 1.044 2.358 1.927 3.217l.033.03c.5.48 1.064.887 1.674 1.207l.1.05c.295.15.597.282.91.39l.018.007c.31.108.63.19.956.253.06.012.122.022.184.033.31.053.623.09.94.103l.047.002c.325.01.652-.007.98-.04l.236-.03c.332-.045.664-.105.995-.198.728-.205 1.4-.513 2.003-.904 2.614-1.695 3.944-4.95 3.058-8.107z"/>
      <ellipse transform="rotate(-15.678 128.47 140.648)" class="st16" cx="128.47" cy="140.648" rx="7.308" ry="7.308"/>
      <path class="st2" d="M132.833 134.794c1.758 2.253 2.1 5.43.613 8.077-1.977 3.52-6.432 4.77-9.95 2.794-.302-.17-.563-.38-.83-.583 1.763 2.31 4.812 3.437 7.78 2.604 3.885-1.09 6.15-5.125 5.06-9.01-.454-1.618-1.422-2.95-2.673-3.88z"/>
      <path class="st14" d="M135.207 137.87c-.234-.583-.516-1.153-.908-1.68-1.413-1.904-3.562-2.908-5.76-2.975l.018-.027c-7.156-.887-19.725 10.375-18.65 11.825 1.447 1.95 8.365-.886 11.323-2.22 0 0 9.348-5.888 13.977-4.922z"/>
      <path class="st15" d="M121.23 142.793s8.972-5.64 13.686-4.955c-.61-.283-1.235-.525-1.89-.677-2.232-.518-4.592.025-6.692.944-2.1.92-4.02 2.202-6.052 3.262-3.126 1.63-6.526 2.732-10.014 3.243-.134.02-.27.03-.403.046-.027.148-.02.272.043.357 1.447 1.95 8.365-.886 11.323-2.22zM122.603 70.014c9.04 1.27 20.597 7.224 26.19 14.4 4.208 5.4 6.39 9.285 4.616 17.162 6.81-1.42 14.684-2.47 18.476-2.9l3.41 3.596c4.045-17.054-25.297-33.695-52.693-32.258z"/>
      <path class="st5" d="M166.08 158.644s11.78-2.228 13.582-7.91c4.26-13.425-8.44-34.165-22.345-44.644"/>
      <path class="st19" d="M145.16 155.527c-.307-1.046-.754-2.094-1.563-2.825-1.71-1.546-4.35-1.194-6.61-.746-4.172.775-6.245 1.49-10.164 3.123-1.398.58-2.798 1.304-3.74 2.49-.94 1.186-1.313 2.94-.53 4.235.974 1.61 3.174 1.884 5.055 1.83 5.367-.152 10.694-1.562 15.434-4.085 1.014-.54 2.1-1.265 2.305-2.396.098-.542-.03-1.098-.186-1.627z"/>
      <path class="st15" d="M110.978 81.312c4.705.303 9.37 1.206 13.848 2.68 2.8.924 5.6 2.115 7.72 4.164 4.373 4.23 4.863 11.32 2.745 17.022l-1.333 1.156c3.632-1.973 6.66-5.176 8.046-9.07 1.385-3.896.998-8.468-1.356-11.866-2.095-3.022-5.492-4.898-8.964-6.11-3.345-1.168-6.85-1.815-10.36-2.298-9.237-1.27-18.71-1.417-27.824.558-.55.12-1.097.246-1.644.382-.396.23-.794.456-1.184.696-3.764 2.313-7.016 4.692-9.878 7.403 9.825-3.2 19.938-5.377 30.184-4.718z"/>
      <path class="st23" d="M58.76 182.233c-12.472 9.654-24.553 10.01-40.21 11.9-17.593 9.598-23.06 67.137 9.522 83.913 5.942 3.06 13.294 2.285 19.35-.545s11.032-7.495 15.778-12.2c14.544-14.423 22.897-44.987 27.833-64.232"/>
      <path class="st35" d="M89.294 207.727c-2.843 11.982-7.753 25.488-13.298 38.306 2.28.074 9.16-.114 11.557-.168 6.704-13.535 8.285-31.645 6.628-38.087-2.218.098-2.828.102-4.886-.05z"/>
      <g>
        <path class="st36" d="M89.208 208.08l-.355 1.24c1.4.12 4.275.337 5.677.385-.092-.72-.208-1.368-.35-1.927-1.636.05-3.25-.04-4.886-.05l-.086.353z"/>
      </g>
      <g>
        <path class="st6" d="M79.6 135.96c-2.238-3.05-5.838-5.037-9.91-5.037-.682 0-1.347.07-2 .177.392.026.78.07 1.163.163.73.178 1.418.49 2.1.8l7.508 3.4c.378.17.758.337 1.14.497z"/>
      </g>
      <g>
        <path class="st6" d="M77.904 157.116c-1.1 1.817-2.984 3.104-5.04 3.636-1.504.39-3.09.386-4.616.076 2.12 1.174 4.4 1.818 6.693 1.683 1.37-.08 2.723-.29 4.018-1.086-.288-1.464-.767-2.843-1.054-4.308z"/>
      </g>
      <g>
        <path class="st6" d="M63.156 142.593c.486-1.26 1.523-2.298 2.784-2.785 2.155-.833 4.714.022 6.322 1.68s2.38 3.978 2.64 6.274c-.628-2.21-2.25-4.118-4.33-5.096-2.08-.978-5.312-.998-7.416-.073"/>
      </g>
      <g>
        <path class="st31" d="M47.42 277.5c6.056-2.83 11.034-7.495 15.78-12.2 14.332-14.213 22.87-44.95 27.833-64.232-4.26 3.89-6.406 8.375-8.947 12.508-11.204 18.22-18.747 39.976-41.698 50.87-13.06 6.197-25.404 1.214-26.403 1.025 3.556 5.174 8.197 9.543 14.087 12.576 5.943 3.06 13.294 2.285 19.35-.545z"/>
      </g>
      <g>
        <path class="st31" d="M29.638 192.84c-2.48-1.23-8.306-2.263-10.146-4.328-.292 1.675-.596 3.525-.943 5.622-.013.076 8.688-.434 11.088-1.295z"/>
      </g>
      <g>
        <path class="st35" d="M140.967 212.338c-9.288 6.79-20.332 10.666-31.197 14.45 11.412 2.616 23.75.97 34.076-4.544"/>
      </g>
      <g>
        <path class="st5" d="M235.295 164.007c-1.585-1.097-3.673-1.86-6.355-2.19-1.966-.242-9.015-.626-15.808-.03 5.656 2.318 12.133 2.093 18.223 3.146.824.142 1.673.31 2.49.123.597-.137 1.17-.524 1.45-1.05z"/>
      </g>
      <g>
        <path class="st25" d="M217.823 175.654c.15-1.19 5.007-4.158 10.313-1.626 1.297.62 3.125 1.828 4.197 2.785 4.594 4.102 7.23 10.31 6.988 16.465-.01.247-.032.516-.2.698-.165.176-.424.22-.663.25-2.155.276-4.358.178-6.48-.288-.368-.08-.75-.182-1.022-.44-.3-.286-.41-.71-.507-1.11-.68-2.825-1.26-5.673-1.736-8.538-.437-2.625-1.217-5.826-3.49-7.21 0 0-4.54.217-7.054 0 0 0-.428-.324-.345-.986z"/>
      </g>
      <g>
        <path class="st26" d="M232.357 175.958c-1.073-.958-2.854-1.97-4.22-2.412-5.146-1.67-10.164.92-10.314 2.108-.083.662.345.987.345.987 2.514.217 7.054 0 7.054 0 .246.15.466.33.68.52-.103-.518-.85-.836-.897-1.396-.033-.4.342-.743.738-.805.396-.062.793.09 1.15.27 2.605 1.324 3.986 4.203 4.987 6.948 1.346 3.69 2.34 7.508 2.966 11.385.04.257.084.517.128.777 1.162.066 2.33.035 3.483-.113.24-.03.498-.075.662-.25.168-.182.19-.452.2-.7.242-6.154-2.37-13.217-6.963-17.32z"/>
      </g>
      <g>
        <path class="st26" d="M232.333 176.813c-1.072-.957-2.9-2.166-4.197-2.785-5.306-2.532-10.163.437-10.313 1.627-.083.66.345.986.345.986 2.514.217 7.054 0 7.054 0 1.313.8 2.118 2.21 2.656 3.76.07-.11.138-.222.225-.32.5-.575 1.31-.91 2.05-.72.698.18 1.214.78 1.55 1.42.193.364.37.782.744.96.597.28 1.285-.253 1.554-.855.33-.737.287-1.587.032-2.356-.533-.605-1.098-1.18-1.7-1.717z"/>
      </g>
    </g>
    <g>
      <path class="st37" d="M385.272 284.75c9.76 2.222 20.53 1.785 29.352-3.364 9.642-5.627 13.824-15.82 14.304-26.61.575-12.933-4.948-26.704-.335-39.296 2.117-5.78 6.64-11.348 12.674-13.258 5.487-1.737 14.048 1.388 12.797 8.484-.998 5.664 7.673 8.096 8.68 2.393 2.12-12.043-8.548-21.908-20.427-20.28-13.382 1.835-22.326 14.705-24.006 27.335-1.868 14.055 4.696 28.835.325 42.6-4.166 13.123-18.987 16.044-30.97 13.318-5.64-1.283-8.047 7.392-2.393 8.678z"/>
    </g>
    <path class="st38" d="M454.24 195.164c-2.197-.527-4.534-.67-6.923-.344-13.38 1.835-22.21 14.72-24.006 27.336-2.588 18.174-3.348 36.42-4.675 40.6-1.908 6.01-6.055 9.875-11.137 12.043l.19 3.51c-4.878 1.043-10.182.864-15.023-.237-4.528-1.03-6.968 4.357-4.83 7.187 7.856 1.382 16.18.985 23.51-2.215l.048-.02c.49-.216.978-.446 1.46-.687.062-.03.125-.058.187-.09.534-.27 1.063-.558 1.584-.862 9.642-5.627 13.824-15.82 14.304-26.61.028-.624.037-1.25.038-1.878 0-.106.002-.212 0-.318 0-.597-.015-1.195-.038-1.795l-.016-.376c-.027-.603-.06-1.207-.104-1.81l-.02-.24c-.04-.56-.09-1.12-.143-1.682-.01-.124-.022-.248-.034-.372-.056-.57-.117-1.143-.182-1.716l-.07-.605c-.058-.5-.118-1.003-.18-1.505-.535-4.3-1.177-8.62-1.374-12.895 0 0 0-.016-.002-.023-.095-2.072-.084-4.133.094-6.175l.012-.13c.06-.667.136-1.333.235-1.996.29-1.948.753-3.878 1.45-5.78 2.117-5.78 6.62-11.406 12.674-13.258 0 0 19.198-9.456 20.497 7.585.108 1.424-.417 5.27-1.92 6.444 1.387-.28 3.843-1.518 4.176-3.407 1.35-7.66-2.798-15.327-9.78-17.68z"/>
    <g>
      <path class="st37" d="M398.4 222.317c-4.502-5.06-13.99-11.905-17.76-11.905-3.767 0-4.665 5.6-5.608 8.01-1.773.127-3.51.208-5.224.263-1.715-.055-3.45-.136-5.223-.263-.943-2.41-1.842-8.01-5.61-8.01-3.768 0-13.256 6.844-17.76 11.905-22.397 25.168-34.453 81.446 28.593 81.446s50.99-56.278 28.593-81.446z"/>
      <path class="st38" d="M398.4 222.317c-4.502-5.06-13.99-11.905-17.76-11.905-.43 0-.817.08-1.176.214 4.502 1.955 11.202 7.084 14.772 11.096 22.398 25.168 34.453 81.446-28.593 81.446-3.635 0-7.01-.195-10.158-.553 4.274.742 9.028 1.148 14.323 1.148 63.046 0 50.99-56.278 28.593-81.446z"/>
      <path class="st38" d="M408.42 290.467c.188-5.928-.63-11.886-2.495-17.517-1.77-5.343-4.58-10.555-9.105-13.904-3.403-2.518-7.548-3.82-11.68-4.732-1.53-.337-3.072-.61-4.618-.854.256-.377.47-.785.616-1.217.202-.597.257-1.344-.2-1.778-.42-.398-1.087-.356-1.65-.22-1.373.336-2.64 1.093-3.585 2.144l-.42-1.59c-.042-.164-.094-.34-.23-.44-.164-.122-.394-.09-.593-.037-1.11.294-2.083 1.072-2.616 2.09-.058-1.23-.21-2.457-.45-3.665-.04-.197-.104-.422-.29-.5-.164-.07-.352.012-.506.104-1.414.844-2.02 2.526-2.485 4.125h-.224c-.16-.323-.34-.634-.6-.877-.34-.316-.856-.49-1.28-.3-.425.188-.623.82-.292 1.146l.31.038c-2.026.04-4.052.146-6.072.325-4.85.428-9.755 1.272-14.098 3.476-3.726 1.89-6.832 4.737-9.217 8.14-.17-.292-.36-.576-.598-.832-.413-.446-1.015-.825-1.6-.66-.688.19-.973 1-1.085 1.705-.222 1.388-.18 2.82.12 4.193-.397-.5-1.276-.316-1.637.212-.36.53-.325 1.233-.18 1.856.145.625.387 1.235.396 1.876-.568-.173-1.183.25-1.423.794-.24.543-.192 1.166-.112 1.755.157 1.14.428 2.263.8 3.352-.112 1-.177 2.002-.19 3.004-.042 3.154.363 6.276 1.13 9.316 6.913 7.47 18.475 12.423 36.258 12.75.138 0 .276.003.415.004.363.006.73.008 1.097.01 19.15-.04 31.333-5.297 38.39-13.293z"/>
      <path class="st39" d="M405.33 272.95c-1.77-5.343-4.58-10.555-9.105-13.904-3.403-2.518-7.548-3.82-11.68-4.732-1.53-.337-3.072-.61-4.618-.854.256-.377.47-.785.616-1.217.202-.597.257-1.344-.2-1.778-.42-.398-1.087-.356-1.65-.22-1.373.336-2.64 1.093-3.585 2.144l-.42-1.59c-.042-.164-.094-.34-.23-.44-.164-.122-.394-.09-.593-.037-1.11.294-2.083 1.072-2.616 2.09-.06-1.23-.21-2.457-.45-3.665-.04-.197-.105-.422-.29-.5-.165-.07-.353.012-.507.104-1.414.844-2.02 2.526-2.485 4.125h-.224c-.158-.323-.338-.634-.6-.877-.34-.316-.856-.49-1.28-.3-.424.188-.622.82-.29 1.146l.31.038c-2.027.04-4.053.146-6.073.325-4.85.428-9.754 1.272-14.097 3.476-3.726 1.89-6.832 4.737-9.217 8.14-.172-.292-.362-.576-.6-.832-.412-.446-1.014-.825-1.6-.66-.687.19-.972 1-1.084 1.705-.222 1.388-.18 2.82.12 4.193-.397-.5-1.276-.316-1.636.212-.36.53-.326 1.233-.18 1.856s.387 1.235.395 1.876c-.567-.173-1.182.25-1.422.794-.24.543-.192 1.166-.112 1.755.156 1.14.427 2.263.8 3.352-.113 1-.178 2.002-.192 3.004-.04 3.154.364 6.276 1.132 9.316 7.153 7.73 19.286 12.767 38.142 12.767 18.73 0 30.83-4.968 38.002-12.61.276-6.153-.542-12.355-2.48-18.203z"/>
      <path class="st40" d="M372.886 303.714c.82-.025 1.625-.06 2.418-.105l.462-.03c.81-.05 1.61-.107 2.39-.177.042-.004.083-.01.125-.013.76-.07 1.504-.15 2.237-.24l.385-.045c.728-.092 1.44-.193 2.142-.303l.43-.07c.707-.115 1.405-.238 2.086-.372.067-.013.132-.028.2-.04.65-.13 1.285-.27 1.91-.416.106-.025.214-.048.32-.074.638-.153 1.263-.316 1.877-.486l.39-.11c.612-.174 1.214-.355 1.802-.545.08-.028.16-.056.24-.082.553-.183 1.095-.373 1.626-.57l.258-.094c.554-.21 1.094-.428 1.624-.652l.35-.15c.524-.227 1.037-.46 1.537-.7l.252-.126c.472-.232.934-.47 1.385-.714.064-.035.13-.068.193-.103.475-.26.935-.53 1.387-.805.102-.062.204-.123.304-.186.44-.274.872-.553 1.29-.84.084-.056.164-.114.246-.17.4-.28.79-.562 1.172-.852l.13-.097c.4-.307.786-.622 1.164-.943.085-.072.17-.143.254-.216.365-.314.72-.634 1.064-.96.075-.07.147-.143.22-.213.337-.326.667-.656.985-.993l.07-.07c.09-2.026.05-4.055-.096-6.076-6.187 10.662-19.17 18.09-42.07 18.09-3.636 0-7.01-.195-10.16-.553 2.648.46 5.48.79 8.508.974l.147.008c.516.03 1.04.056 1.57.078l.33.015c.487.02.98.033 1.478.044.136.003.27.008.407.01.62.012 1.247.02 1.883.02.89 0 1.76-.016 2.62-.038.152-.004.306-.007.458-.012z"/>
      <path class="st38" d="M359.012 213.185c-.27-.393-1.55-.238-1.828-.167-1.838.47-3.6 1.24-5.192 2.27-.59.382-1.165.807-1.58 1.374-.185.255-.33.624-.13.868.085.105.213.177.347.203.676.13 1.24.006 1.83.056 1.45.12 2.82.47 4.276.51.467.015.94.02 1.394-.094.273-.07.55-.192.715-.42.2-.278.198-.648.185-.99-.04-1.076-.11-2.15-.21-3.222"/>
      <path class="st41" d="M351.393 217.43c-.434-1.057 4.264-3.842 7.005-4.344.173-.03.36-.054.516.028.127.068.21.195.285.318.878 1.428 2.195 4.13 2.087 4.565-.108.433-1.06.498-1.653.535-1.648.104-7.902-.275-8.24-1.1z"/>
      <path class="st38" d="M381.266 213.286c-.216-.22-.658-.32-.937-.186-1.19.57-3.366 4.903-2.03 5.115.25.04.606.134.855.1.776-.112 1.434-.666 1.85-1.33.415-.666.623-1.438.804-2.2.092-.392.18-.787.197-1.19"/>
      <path class="st41" d="M388.04 217.43c.434-1.057-4.264-3.842-7.005-4.344-.173-.03-.36-.054-.516.028-.128.068-.21.195-.286.318-.88 1.428-2.195 4.13-2.087 4.565s1.06.498 1.652.535c1.647.104 7.9-.275 8.24-1.1z"/>
      <path class="st38" d="M372.03 223.17c1.517-.12 2.828-1.51 2.856-3.033.683.484 1.656.643 2.357.185.7-.458.89-1.62.233-2.14-.723-.573-1.786-.08-2.506.497.06-.167.11-.337.153-.508-.03.083-.06.172-.09.25-1.774.127-3.51.208-5.225.263-.707-.023-1.42-.053-2.137-.086l.022.044c-.033-.018-.063-.03-.095-.048-.89-.042-1.79-.093-2.698-.155-.247.136-.457.33-.58.502-.277.39-.004.946.357 1.262.964.843 2.578.798 3.494-.097.062 2.28 2.34 3.182 3.86 3.063zM370.59 235.61c-1.227 0-4.016-5.2-.02-5.2s1.332 5.097.02 5.2"/>
      <path class="st42" d="M364.05 237.598c.537 1.685 2.704 2.01 4.217 1.538 1.848-.575 2.143-2.58 2.11-4.244-.022-1.147-1.807-1.15-1.784 0 .014.727.118 1.79-.496 2.33-.383.34-2.115.56-2.325-.098-.347-1.09-2.07-.625-1.72.474z"/>
      <path class="st42" d="M373.392 237.124c-.21.66-1.942.437-2.325.1-.614-.542-.51-1.605-.495-2.332.022-1.15-1.763-1.15-1.785 0-.033 1.665.263 3.67 2.11 4.244 1.513.47 3.68.147 4.216-1.538.35-1.097-1.373-1.566-1.72-.474z"/>
      <path class="st43" d="M369.582 235.474c-1.227 0-4.016-5.2-.018-5.2s1.33 5.098.018 5.2"/>
      <path class="st44" d="M370.863 230.546c.483 1.557-.403 3.908-1.357 4.92.026.003.052.008.076.008 1.13-.088 3.26-3.875 1.28-4.928z"/>
      <path class="st38" d="M356.345 233.15c-.04-.142-.095-.276-.16-.403-.022-.047-.05-.09-.077-.135-.044-.076-.09-.15-.143-.22-.038-.05-.078-.098-.12-.145-.05-.056-.1-.11-.155-.16-.05-.046-.098-.09-.15-.132-.017-.013-.03-.03-.048-.04.004.004.007.01.01.015-.56-.425-1.303-.6-2.033-.394-1.242.348-1.965 1.636-1.617 2.877.083.295.222.56.4.788-.003 0-.005 0-.007-.002.003.004.008.007.01.012.03.04.066.073.1.11.056.065.115.128.18.186.04.037.083.072.126.106.068.053.138.1.21.146.042.025.082.053.125.076.114.062.232.115.355.157.027.01.056.015.084.023.103.03.207.055.314.072.045.007.09.01.136.015.097.01.195.01.294.008.043-.002.086-.002.13-.006.14-.013.28-.034.42-.073.155-.045.302-.103.44-.174.964-.497 1.48-1.62 1.175-2.704v-.002zM388.476 233.152c-.04-.143-.095-.277-.16-.405-.022-.047-.05-.09-.077-.134-.046-.077-.092-.152-.145-.222-.037-.05-.078-.096-.12-.143-.05-.056-.1-.11-.154-.16-.048-.046-.097-.09-.15-.132-.016-.013-.03-.03-.048-.04.004.004.007.01.01.015-.56-.425-1.302-.6-2.033-.394-1.24.348-1.965 1.636-1.616 2.877.083.295.222.56.398.788-.002 0-.004 0-.005-.002l.01.012c.03.04.066.073.098.11.058.065.117.128.18.186.042.037.084.072.128.106.067.053.137.1.21.146.04.025.08.053.124.076.114.062.232.115.355.157.028.01.057.015.084.023.103.03.208.055.315.072.046.007.09.01.136.015.098.01.195.01.294.008.043-.002.086-.002.13-.006.14-.013.28-.034.42-.073.31-.088.588-.234.825-.423.118-.095.227-.2.323-.315.194-.228.342-.492.437-.777.14-.426.16-.898.03-1.363z"/>
      <g>
        <ellipse transform="rotate(-15.678 353.504 233.187)" class="st16" cx="353.504" cy="233.187" rx="2.333" ry="2.333"/>
        <path class="st2" d="M354.897 231.32c.56.718.67 1.732.196 2.577-.63 1.123-2.054 1.523-3.177.892-.096-.055-.18-.123-.265-.187.564.736 1.538 1.096 2.485.83 1.24-.348 1.964-1.636 1.615-2.876-.145-.516-.454-.94-.853-1.238z"/>
      </g>
      <g>
        <ellipse transform="rotate(-15.678 385.635 233.187)" class="st16" cx="385.635" cy="233.187" rx="2.333" ry="2.333"/>
        <path class="st2" d="M387.027 231.32c.562.718.67 1.732.196 2.577-.63 1.123-2.053 1.523-3.176.892-.097-.055-.18-.123-.265-.187.563.736 1.536 1.096 2.483.83 1.24-.348 1.964-1.636 1.616-2.876-.144-.516-.453-.94-.853-1.238z"/>
      </g>
      <path class="st45" d="M366.994 219.61c-.916.894-2.53.94-3.494.096-.36-.316-.634-.87-.356-1.262.173-.243.515-.535.895-.634.838-.22 1.574-.168 2.475.336-.264-.57-.534-1.167-.502-1.793.03-.627.474-1.277 1.1-1.32 1.468-.105 1.834 1.71 2.046 2.34-.17-.954.01-2.01.42-2.91s1.34-1.642 2.32-1.51c.935.127 1.612.99 1.923 1.883.375 1.074.364 2.278-.03 3.345.72-.575 1.783-1.07 2.506-.496.655.52.468 1.682-.234 2.14-.7.458-1.673.298-2.357-.185-.03 1.522-1.34 2.913-2.858 3.032-1.518.12-3.797-.783-3.858-3.063"/>
      <path class="st46" d="M376.3 217.684c-.724-.573-1.787-.08-2.507.497.394-1.066.405-2.27.03-3.344-.212-.61-.6-1.2-1.12-1.558.594 1.07.872 2.317.764 3.538-.04.45-.134.907-.38 1.286-.428.657-1.322.97-2.066.72.306.58.502 1.37.042 1.837-.335.338-.874.35-1.346.29-.577-.076-1.16-.23-1.633-.57-.473-.34-.822-.89-.81-1.473-1.106.776-2.552 1.024-3.863.71l.09.09c.964.842 2.578.797 3.494-.098.06 2.28 2.34 3.18 3.858 3.062 1.52-.12 2.83-1.51 2.857-3.033.683.482 1.655.642 2.356.184.702-.458.89-1.62.233-2.14z"/>
      <path class="st37" d="M329.64 240.973c-.403-1.063-2.004-1.407-2.81-.605s-.47 2.405.592 2.814c-1.192-.27-2.645.15-3.127 1.273-.307.715-.132 1.61.42 2.158.553.55 1.31 1.098 2.026.79-1.37.14-2.5.66-3.082 1.91-.264.564-.352 1.326.12 1.734.394.342 1 .27 1.49.083s.958-.467 1.48-.486l3.89-2.878-.997-6.793z"/>
      <path class="st38" d="M413.134 248.542c.608.477 1.593.263 2.04-.367s.376-1.542-.07-2.172c-.446-.63-1.207-.993-1.975-1.076 1.074-.418 1.71-1.727 1.375-2.83s-1.593-1.837-2.72-1.586c.592-.89.242-2.257-.704-2.753-.945-.497-2.27-.007-2.666.985v2.9l2.433 5.75 2.287 1.15z"/>
      <path class="st39" d="M339.737 295.86c-.104 1.336-.065 2.683.117 4.01.064.466.15.942.39 1.345.635 1.056 2.068 1.256 3.3 1.237 2.674-.04 5.34-.578 7.82-1.576"/>
      <path class="st40" d="M400.694 295.86c.104 1.336.065 2.683-.117 4.01-.064.466-.15.942-.39 1.345-.635 1.056-2.068 1.256-3.3 1.237-2.674-.04-5.34-.578-7.82-1.576"/>
    </g>
  </g>
  <g id="Capa_2" fill="none" fill-rule="evenodd">
    <path class="st47 st48" d="M419.532 93.105c-21.64-4.232-36.766-27.24-35.144-49.23.974-13.2 7.28-26.052 17.545-34.408S426.155-1.373 439.23.684c18.27 2.875 31.274 10.35 38.1 26.28 4.57 10.66 6.522 21.526 5.526 31.59-1.33 13.445-9.807 23.583-21.78 29.846-11.97 6.263-26.663 8.95-41.544 4.705"/>
    <path class="st47 st49" d="M477.33 26.963c-2.978-6.948-7.13-12.287-12.383-16.338 3.247 3.415 5.938 7.517 8.04 12.422 4.57 10.663 6.523 21.528 5.527 31.592-1.332 13.444-9.807 23.58-21.78 29.844-11.972 6.263-26.664 8.95-41.544 4.705-6.267-1.226-11.982-4.034-16.908-7.93 5.775 5.93 13.042 10.24 21.25 11.845 14.88 4.245 29.573 1.558 41.545-4.705 11.972-6.263 20.448-16.4 21.78-29.846.995-10.064-.957-20.93-5.527-31.59z"/>
    <path class="st50" d="M425.89 73.6c.14.04.285.068.428.105.003-.145-.003-.29.008-.435l-.437.33z"/>
    <path class="st50" d="M421.01 67.804s7.01 18.3 7.27 18.522c.322.27 12.314-.065 12.554-.227.202-.14 5.757-14.237 6.287-18.296-5.246 1.278-26.11 0-26.11 0z"/>
    <path class="st51" d="M434.99 86.365c2.927-.07 5.73-.19 5.844-.266.202-.14 5.757-14.237 6.287-18.296-5.246 1.278-26.11 0-26.11 0s.705 1.84 1.675 4.36c3.697 2.764 8.44 2.98 13.05 3.29-.163 3.137-.583 7.775-.746 10.91z"/>
    <path class="st48" d="M426.236 71.548c-11.392-2.228-19.356-14.34-18.502-25.918.513-6.95 3.832-13.715 9.237-18.114s12.753-5.708 19.637-4.624c9.62 1.513 16.464 5.45 20.058 13.835 2.406 5.613 3.434 11.333 2.91 16.63-.702 7.08-5.164 12.417-11.467 15.714s-14.038 4.713-21.872 2.478"/>
    <path class="st52" d="M443.478 48.732c-1.445 1.054-2.142 1.27-3.61.77-.307-.106-.715-.547-1.1-.69-.617-.227-1.268.26-1.45.824-.79 2.435-3.02-.516-3.498-.942-.438-.392-1.245-.516-1.667 0-.932 1.138-1.478 1.678-2.502.456-.633-.758-1.667-.21-1.97.52-.666 1.618-2.824.426-3.73.026-.822-.363-2.147.26-1.733 1.33l8.265 21.385c.86.11 1.715.17 2.565.2-.013-.08-.034-.16-.066-.244l-7.616-19.706c1.37.316 2.612.215 3.578-.76.362.366.753.695 1.238.97.352.198.84.23 1.19 0 .694-.46 1.203-1.003 1.702-1.6 1.03 1.078 1.96 2.056 3.725 1.736.964-.175 1.632-.65 2.11-1.32.307.356.61.722 1.43.77.52.03 1.1-.086 1.68-.283-2.273 6.824-4.607 13.628-6.932 20.434.862-.033 1.716-.104 2.56-.212 2.542-7.437 5.103-14.868 7.565-22.332.305-.925-.896-1.94-1.732-1.33z"/>
    <g>
      <path class="st53" d="M456.665 36.726c-1.498-3.495-3.57-6.208-6.163-8.304 1.174 1.49 2.188 3.182 3.02 5.122 2.405 5.614 3.434 11.334 2.91 16.632-.702 7.08-5.164 12.416-11.467 15.713-6.303 3.296-14.038 4.71-21.872 2.476-3.53-.69-6.728-2.33-9.438-4.608 3.225 3.918 7.57 6.81 12.58 7.79 7.835 2.235 15.57.82 21.873-2.477 6.303-3.296 10.765-8.633 11.466-15.712.525-5.298-.503-11.018-2.91-16.632z"/>
    </g>
    <g>
      <path class="st14" d="M422.335 30.147c-.98-.013-1.92.455-2.654 1.105-.732.65-1.287 1.475-1.81 2.304-.31.49-.618 1.01-.647 1.586-.033.667.327 1.306.82 1.758.49.452 1.104.745 1.714 1.016.59.262 1.205.513 1.85.512.716-.002 1.396-.317 2-.702.987-.627 1.843-1.457 2.502-2.422.687-1.007 1.138-2.41.433-3.405-.262-.37-.65-.63-1.034-.875-.978-.626-2.12-1.25-3.24-.95"/>
    </g>
  </g>
</svg>
